<?xml version="1.0" standalone="no"?>
<!DOCTYPE svg PUBLIC "-//W3C//DTD SVG 20010904//EN"
 "http://www.w3.org/TR/2001/REC-SVG-20010904/DTD/svg10.dtd">
<svg version="1.0" xmlns="http://www.w3.org/2000/svg"
 width="1325.000000pt" height="652.000000pt" viewBox="0 0 1325.000000 652.000000"
 preserveAspectRatio="xMidYMid meet">
<metadata>
Created by potrace 1.16, written by Peter Selinger 2001-2019
</metadata>
<g transform="translate(0.000000,652.000000) scale(0.100000,-0.100000)"
fill="#000000" stroke="none">
<path d="M6925 6510 c-3 -5 0 -7 9 -4 8 3 38 -10 68 -28 29 -19 100 -61 158
-93 58 -32 113 -65 124 -74 10 -9 19 -14 20 -12 0 3 33 -14 72 -37 39 -22 82
-46 97 -53 20 -9 24 -15 16 -25 -8 -9 -6 -11 8 -8 23 6 113 -43 113 -61 0 -7
8 -19 18 -26 15 -13 16 -12 3 4 -19 23 -7 33 18 15 12 -8 18 -18 13 -22 -4 -5
0 -7 8 -6 29 4 41 0 34 -12 -5 -7 -3 -8 5 -4 7 5 18 0 26 -10 8 -11 15 -15 15
-11 0 4 10 2 23 -5 12 -7 26 -11 30 -10 5 1 6 -2 2 -8 -6 -9 16 -15 39 -11 5
1 4 -5 -4 -14 -10 -12 -15 -13 -28 -3 -8 7 -18 12 -21 11 -3 -2 -6 1 -6 6 0 5
-3 13 -7 17 -5 4 -8 0 -8 -9 0 -10 -8 -17 -17 -16 -11 0 -13 3 -5 6 17 7 15
20 -3 20 -23 0 -14 -31 10 -35 32 -6 37 -18 8 -17 -15 0 -36 8 -46 18 -15 16
-21 16 -35 5 -15 -12 -16 -11 -3 5 12 15 11 17 -10 15 -18 -2 -23 1 -21 14 2
11 -5 18 -20 20 -13 2 -22 9 -21 15 1 6 -4 14 -13 17 -12 4 -12 2 -4 -14 6
-12 7 -27 1 -43 -11 -29 -4 -42 16 -26 10 9 13 8 13 0 0 -7 5 -9 12 -5 6 4 8
3 4 -4 -3 -6 -2 -13 4 -17 5 -3 10 2 11 12 0 10 3 13 5 7 3 -6 -2 -24 -11 -40
-15 -29 -19 -26 -15 11 2 16 0 17 -13 6 -13 -10 -17 -9 -26 7 -11 20 -26 23
-47 10 -6 -4 -11 -1 -11 7 0 8 6 15 13 15 20 0 28 20 14 33 -8 7 -10 8 -7 1 3
-6 0 -11 -8 -11 -8 0 -12 4 -9 9 4 5 -2 16 -12 23 -11 8 -14 15 -9 15 6 0 11
10 12 23 2 21 1 21 -9 2 -22 -38 -45 -58 -53 -44 -6 8 -4 10 5 4 9 -5 11 -4 6
3 -10 16 -26 15 -26 -2 0 -8 -6 -16 -12 -18 -21 -8 -37 2 -32 20 5 15 4 15 -6
-1 -6 -9 -9 -21 -6 -25 2 -4 -4 -8 -14 -8 -14 0 -16 4 -9 17 13 25 11 36 -5
36 -8 0 -12 -8 -9 -21 4 -16 2 -18 -5 -7 -6 8 -17 11 -26 8 -9 -4 -16 -2 -16
3 0 6 7 10 15 10 27 0 9 49 -18 50 -5 0 -1 -7 8 -16 9 -9 13 -19 10 -22 -3 -4
-9 -2 -13 3 -4 6 -14 11 -22 13 -13 2 -13 1 0 -10 17 -15 25 -58 10 -58 -6 0
-10 11 -10 25 0 14 -4 25 -10 25 -5 0 -10 9 -10 19 0 13 -6 18 -17 16 -10 -2
-24 -4 -30 -4 -7 -1 -13 -6 -13 -12 0 -6 6 -9 13 -6 8 3 19 2 26 -3 9 -5 4 -9
-13 -12 -14 -3 -26 -2 -26 3 0 4 -13 14 -30 22 -25 13 -31 13 -41 1 -7 -9 -8
-14 -1 -14 5 0 8 -10 4 -22 l-5 -22 -9 24 c-5 12 -6 31 -3 41 4 13 1 19 -9 19
-10 0 -13 -6 -9 -17 4 -11 3 -14 -5 -9 -7 4 -19 3 -28 -2 -11 -6 -13 -11 -5
-16 6 -4 11 -1 11 6 1 9 3 9 9 -2 5 -8 9 -19 9 -24 0 -5 6 -13 14 -17 10 -7 8
-9 -6 -9 -12 0 -16 5 -12 16 4 12 1 14 -14 9 -12 -4 -20 -2 -20 5 0 6 -4 9 -9
6 -5 -3 -12 1 -15 10 -9 23 -8 26 7 18 8 -5 7 -2 -2 9 -10 13 -17 15 -27 6 -8
-6 -23 -9 -33 -6 -17 4 -18 2 -9 -18 6 -14 16 -21 24 -18 8 3 14 0 14 -7 0 -6
-4 -9 -9 -5 -6 3 -14 -3 -20 -12 -7 -12 -10 -13 -11 -4 0 8 -7 11 -20 8 -13
-3 -18 -1 -13 6 4 6 0 8 -10 4 -10 -4 -17 -1 -17 5 0 6 -3 8 -6 5 -4 -3 -16
-1 -28 5 -18 10 -19 9 -9 -4 16 -19 5 -32 -14 -16 -11 8 -12 7 -7 -6 3 -9 1
-16 -5 -16 -6 0 -11 4 -11 9 0 5 -7 12 -16 15 -14 5 -15 4 -5 -8 9 -11 9 -15
-1 -20 -10 -5 -10 -7 0 -12 6 -3 11 -15 11 -27 -1 -17 -2 -18 -6 -4 -2 9 -9
17 -14 17 -6 0 -9 10 -7 22 2 17 -3 22 -27 24 -27 3 -28 2 -7 -6 12 -5 22 -15
22 -21 0 -8 -4 -9 -13 0 -8 6 -17 8 -21 4 -15 -15 -42 -11 -58 10 -15 18 -18
19 -18 5 0 -9 5 -20 10 -23 6 -4 8 -10 5 -15 -3 -5 3 -11 14 -15 11 -3 22 -12
25 -20 6 -17 26 -20 26 -5 0 5 -12 17 -27 25 -16 9 -20 14 -11 11 10 -3 24 2
33 10 13 13 15 14 15 1 0 -9 -6 -18 -12 -20 -8 -3 -7 -6 4 -6 23 -1 19 -41 -4
-41 -9 0 -19 4 -23 10 -3 5 -12 7 -19 4 -8 -3 -17 0 -21 5 -7 13 -25 5 -25
-10 0 -6 4 -8 9 -5 4 3 17 -1 27 -9 19 -15 19 -15 0 -8 -13 4 -17 3 -12 -5 3
-6 2 -14 -4 -17 -6 -4 -9 -1 -8 7 2 9 -6 12 -27 9 -16 -3 -40 -5 -52 -5 -13
-1 -23 -6 -23 -13 0 -7 7 -10 15 -7 17 7 19 -4 5 -26 -7 -11 -10 -11 -10 -2 0
7 -4 10 -10 7 -5 -3 -10 0 -11 7 0 7 -5 2 -10 -12 -8 -20 -12 -22 -19 -10 -5
9 -5 19 2 27 8 10 7 12 -6 7 -11 -4 -14 -14 -10 -33 5 -24 4 -25 -9 -8 -14 17
-15 16 -21 -9 -5 -18 -3 -30 6 -35 10 -7 9 -9 -4 -9 -12 0 -18 8 -19 23 -2 28
-2 29 5 47 5 11 -1 15 -19 15 -14 0 -25 -4 -25 -9 0 -6 -5 -5 -12 2 -7 7 -16
12 -22 12 -5 0 -1 -6 9 -14 11 -8 28 -12 38 -10 11 2 17 -2 14 -9 -3 -7 -10
-11 -16 -9 -7 1 -10 -2 -6 -8 4 -6 0 -21 -8 -34 -12 -17 -13 -26 -4 -35 8 -8
8 -11 -2 -11 -7 0 -9 -5 -5 -12 4 -7 3 -8 -4 -4 -7 4 -12 14 -12 22 0 18 -22
14 -28 -6 -3 -7 0 -10 5 -7 11 7 36 -40 28 -53 -3 -5 -15 -8 -26 -7 -18 1 -18
3 -5 13 9 6 16 17 16 24 0 7 -3 11 -6 7 -3 -3 -17 -2 -30 3 -26 10 -57 3 -48
-11 3 -5 4 -9 2 -9 -2 0 -17 -4 -34 -9 -22 -6 -35 -5 -50 6 -18 14 -16 15 18
10 25 -4 37 -2 35 5 -1 6 9 15 23 19 23 6 23 7 3 8 -16 1 -21 6 -18 21 2 12 0
18 -6 14 -5 -3 -16 0 -24 6 -10 8 -15 9 -15 2 0 -6 8 -13 18 -16 10 -4 19 -13
19 -21 0 -26 -22 -16 -36 17 -14 30 -15 31 -22 10 -11 -30 -17 -27 -14 7 2 26
0 29 -19 22 -11 -5 -21 -17 -21 -27 -1 -11 -7 -18 -14 -16 -7 1 -10 -2 -6 -8
3 -6 10 -8 15 -5 4 3 11 -1 13 -7 3 -7 4 0 4 16 -1 16 3 31 8 33 11 3 12 -68
1 -85 -10 -16 -44 -20 -62 -7 -11 8 -14 17 -8 26 5 8 9 20 11 28 1 8 8 18 15
22 10 7 10 9 -1 9 -8 0 -24 8 -35 18 -20 16 -20 16 -7 0 12 -15 11 -18 -2 -18
-9 0 -21 8 -27 18 -8 14 -9 12 -6 -10 6 -38 14 -48 37 -48 12 0 17 -4 13 -11
-3 -6 -17 -8 -31 -4 -24 6 -24 5 -9 -10 16 -17 13 -40 -5 -29 -5 3 -7 10 -4
15 4 5 3 9 0 9 -10 0 -35 -28 -35 -39 0 -5 -4 -13 -10 -16 -6 -4 -7 1 -3 11 5
13 3 15 -8 10 -8 -4 -4 1 9 10 12 9 22 24 22 33 0 9 5 22 12 29 9 9 9 12 1 12
-7 0 -14 -9 -18 -19 -3 -10 -14 -21 -23 -23 -15 -4 -18 1 -15 26 1 17 0 23 -3
14 -3 -10 -10 -18 -16 -18 -5 0 -8 6 -5 14 6 16 -17 16 -34 -1 -7 -7 -3 -12
15 -17 22 -5 24 -9 14 -20 -8 -9 -17 -11 -24 -5 -6 5 -14 6 -17 2 -4 -3 -7 1
-7 11 0 9 -5 14 -10 11 -6 -4 -8 -11 -5 -16 4 -5 1 -9 -5 -9 -6 0 -9 -4 -6 -8
2 -4 1 -14 -5 -22 -7 -12 -9 -11 -9 5 0 11 -4 16 -8 10 -4 -5 -14 -11 -22 -13
-12 -2 -11 1 2 11 14 11 15 16 5 27 -10 12 -9 12 6 1 9 -8 20 -11 24 -7 9 8
-4 19 -25 21 -9 0 -24 5 -32 10 -13 8 -13 7 -1 -9 13 -16 13 -17 -5 -14 -14 2
-18 -2 -16 -17 l4 -20 -16 20 c-10 13 -15 15 -16 6 0 -10 -3 -11 -13 -3 -10 9
-19 7 -35 -4 -26 -18 -30 -7 -4 12 16 13 16 13 0 14 -10 0 -18 4 -18 8 0 12
-79 47 -87 39 -3 -4 1 -7 10 -7 24 0 21 -26 -5 -44 -28 -20 -39 -20 -32 -1 3
8 11 13 16 12 6 -1 12 4 14 11 1 7 0 8 -2 3 -3 -6 -12 -7 -20 -4 -8 3 -14 -1
-14 -11 0 -14 -18 -21 -43 -17 -5 1 -6 -3 -2 -9 3 -5 -1 -10 -9 -10 -9 0 -16
7 -16 15 0 14 -3 14 -29 1 -16 -9 -31 -13 -33 -11 -3 3 -5 -2 -5 -10 0 -8 4
-15 10 -15 5 0 7 -5 5 -11 -4 -13 -23 -13 -24 1 -1 6 -2 21 -3 35 -1 18 -5 23
-17 18 -9 -3 -11 -9 -6 -12 13 -9 11 -43 -3 -37 -7 2 -18 -1 -24 -7 -9 -9 -11
-8 -6 5 4 9 14 19 23 22 10 2 -4 4 -29 3 -45 -2 -46 -2 -31 -24 14 -22 13 -23
-19 -24 -19 -1 -38 -1 -43 0 -4 1 -14 -6 -22 -16 -11 -14 -13 -15 -14 -3 0 13
-2 13 -11 0 -9 -13 -10 -12 -5 2 3 10 -1 24 -9 32 -11 11 -12 16 -2 19 7 3 4
6 -6 6 -10 1 -15 6 -12 11 3 6 1 10 -4 10 -17 0 -13 -40 4 -46 16 -7 15 -38
-3 -56 -17 -17 -15 -28 6 -22 14 5 14 4 3 -4 -11 -8 -21 -5 -38 14 -12 13 -31
24 -43 24 -11 0 -20 5 -20 12 0 6 -6 3 -14 -8 -10 -12 -11 -22 -5 -29 7 -6 13
-5 19 5 7 11 10 7 10 -17 0 -18 5 -33 10 -33 6 0 10 -4 10 -10 0 -5 -7 -7 -15
-4 -8 4 -15 14 -15 24 0 22 -19 30 -42 18 -12 -5 -18 -5 -18 2 0 5 7 10 15 10
11 0 12 5 5 25 -7 19 -6 23 6 18 9 -3 14 0 12 8 -2 8 2 13 7 12 6 -1 11 11 12
25 l1 27 -15 -28 c-12 -23 -17 -26 -29 -16 -13 10 -18 6 -15 -13 1 -10 -12
-10 -33 -2 -9 3 -13 11 -9 17 4 6 1 7 -6 2 -7 -4 -11 -15 -8 -24 2 -9 -2 -22
-10 -30 -12 -10 -13 -8 -7 16 l7 28 -20 -23 c-17 -18 -22 -20 -27 -7 -8 22
-56 20 -56 -2 0 -15 -2 -16 -10 -3 -8 13 -10 13 -11 -2 -3 -32 -4 -36 -13 -45
-5 -5 -6 -3 -2 5 4 6 2 12 -4 12 -6 0 -9 4 -6 9 3 5 -1 15 -10 22 -14 11 -16
10 -14 -6 4 -33 1 -45 -11 -45 -8 0 -8 5 1 15 10 12 9 15 -7 15 -10 0 -28 7
-39 16 -10 8 -14 13 -7 10 6 -4 14 0 16 6 3 7 6 4 6 -7 1 -15 4 -16 13 -7 10
10 10 15 -1 21 -8 5 -20 7 -28 4 -9 -4 -11 0 -7 11 4 11 1 16 -11 16 -9 0 -14
-4 -11 -9 3 -5 0 -8 -7 -7 -6 0 -13 -3 -14 -9 -1 -5 5 -9 13 -7 8 2 14 -3 14
-9 0 -7 -3 -9 -6 -6 -11 11 -44 -13 -43 -31 1 -16 2 -16 6 1 2 9 8 17 12 17
15 0 20 -13 11 -30 -10 -19 -44 -17 -57 3 -3 6 -1 7 5 3 7 -4 12 -1 12 8 0 25
-12 46 -23 39 -6 -3 -7 -1 -3 5 4 7 2 12 -3 12 -6 0 -11 7 -11 16 0 9 -5 13
-12 9 -7 -4 -6 -1 3 7 9 7 14 20 12 28 -4 13 -3 13 6 0 5 -8 7 -19 5 -25 -3
-5 0 -3 8 6 13 16 51 23 42 7 -3 -5 -9 -6 -14 -3 -5 3 -12 0 -16 -6 -3 -6 0
-15 7 -20 10 -6 11 -9 2 -9 -7 0 -13 -4 -13 -10 0 -20 19 -9 39 23 20 32 55
48 44 20 -3 -7 -1 -13 5 -13 5 0 12 9 15 21 3 12 3 18 0 15 -4 -3 -13 -1 -20
6 -11 9 -16 9 -22 0 -4 -7 -17 -9 -31 -6 -14 4 -41 6 -60 6 -34 -1 -34 0 -11
12 14 8 19 16 13 20 -6 3 -13 0 -15 -6 -4 -8 -6 -7 -6 4 -1 9 5 19 12 22 6 3
-3 3 -20 0 -26 -3 -33 -1 -33 13 0 10 -11 0 -27 -25 -15 -23 -29 -39 -31 -37
-3 3 1 11 8 20 17 21 5 31 -14 12 -8 -8 -12 -17 -9 -21 4 -3 1 -6 -7 -6 -10 0
-10 -3 0 -15 10 -12 9 -15 -4 -15 -10 0 -14 5 -11 10 6 10 -5 13 -42 11 -12
-1 -26 6 -32 16 -10 17 -12 17 -31 -6 -11 -13 -20 -18 -20 -11 0 7 -13 -1 -30
-18 -16 -18 -30 -31 -31 -29 -5 17 -6 36 -1 36 20 -3 25 3 12 12 -12 9 -10 10
8 6 22 -5 22 -4 9 11 -8 9 -16 22 -18 29 -3 8 -11 8 -29 -2 l-25 -14 25 -1
c23 -1 23 -2 5 -10 -13 -5 -26 -3 -37 8 -17 15 -15 37 3 27 5 -4 9 1 9 9 0 9
-6 16 -12 17 -7 0 -23 2 -35 5 -16 3 -23 -1 -23 -11 0 -8 -5 -15 -11 -15 -5 0
-7 -6 -3 -12 4 -7 3 -9 -1 -5 -29 26 -5 71 34 62 20 -4 22 -3 11 5 -12 8 -13
10 -1 10 8 0 12 2 9 5 -3 3 -17 1 -31 -4 -21 -8 -28 -7 -36 7 -5 9 -13 13 -17
9 -4 -4 1 -13 11 -21 12 -9 15 -15 7 -20 -7 -4 -16 -4 -22 -1 -9 6 -14 -10
-13 -42 0 -9 -4 -9 -18 0 -10 6 -16 13 -14 16 3 2 -1 11 -8 19 -6 9 -7 13 -2
10 6 -4 17 -3 24 1 9 6 3 9 -15 9 -16 0 -33 -5 -37 -12 -6 -7 -7 -5 -4 5 3 9
-1 26 -8 37 -8 10 -12 21 -10 24 3 3 -2 5 -10 5 -8 0 -12 -4 -10 -8 6 -9 -20
-19 -48 -19 -17 0 -19 -2 -8 -9 8 -5 20 -7 27 -4 6 2 15 -1 19 -7 7 -11 -23
-9 -57 5 -24 10 -23 25 2 25 11 0 20 4 20 8 0 9 -42 8 -58 -2 -7 -4 -12 -2
-12 3 0 18 5 26 13 23 5 -1 5 3 2 9 -5 8 -10 8 -18 0 -15 -15 -24 -14 -31 5
-3 8 -2 12 3 9 5 -3 12 -1 16 5 4 6 -4 10 -19 10 -14 0 -23 5 -22 13 7 30 20
48 32 43 7 -3 16 0 20 6 4 7 3 8 -4 4 -7 -4 -12 -2 -12 4 0 6 -4 9 -9 6 -5 -3
-12 1 -15 10 -5 12 -14 15 -37 10 -27 -5 -30 -3 -27 17 2 16 -2 22 -17 22 -13
0 -20 -6 -19 -17 1 -10 -2 -18 -6 -18 -5 0 -6 -10 -2 -22 5 -20 4 -21 -11 -9
-9 7 -14 18 -10 24 3 5 -2 16 -12 23 -16 12 -16 16 -4 31 13 16 12 17 -3 4
-10 -7 -24 -11 -33 -8 -8 4 -17 1 -21 -5 -8 -13 15 -28 33 -21 13 5 13 2 -1
-41 -6 -16 -9 -17 -29 -4 -23 15 -57 13 -57 -3 0 -6 4 -8 9 -4 17 10 21 -12 6
-25 -12 -10 -15 -9 -15 4 0 13 -5 16 -19 11 -16 -5 -18 -2 -14 15 3 11 9 23
14 26 5 3 6 -3 3 -13 -5 -17 -5 -17 6 0 6 9 15 15 19 13 16 -10 7 25 -11 41
-10 9 -18 11 -18 5 0 -6 4 -14 10 -17 18 -11 10 -22 -14 -20 -19 3 -23 -1 -19
-19 4 -20 4 -20 -10 -3 -10 12 -17 14 -22 8 -3 -6 -1 -11 6 -11 7 0 10 -3 7
-6 -10 -9 -88 18 -81 29 3 6 1 7 -6 3 -6 -4 -9 -12 -6 -17 10 -15 -12 -10 -29
7 -15 14 -16 13 -16 -13 0 -19 -3 -24 -9 -15 -6 11 -9 10 -13 -5 -4 -14 1 -18
24 -18 15 0 28 3 28 8 0 4 -4 7 -10 7 -5 0 -10 5 -10 11 0 20 24 3 31 -22 7
-23 7 -23 8 -2 1 24 16 39 26 24 7 -12 -25 -52 -37 -45 -4 3 -8 0 -8 -5 0 -6
5 -11 11 -11 5 0 7 -5 3 -11 -5 -8 -9 -8 -14 1 -5 9 -9 9 -14 1 -11 -17 -24
-13 -31 10 -5 14 -12 18 -23 13 -10 -3 -30 -6 -46 -5 -17 1 -26 -2 -22 -6 12
-12 77 -12 69 0 -3 6 -1 7 5 3 6 -4 9 -13 5 -22 -4 -11 -9 -12 -19 -3 -11 9
-15 8 -19 -3 -9 -22 -2 -42 15 -50 9 -4 4 -6 -13 -5 -18 1 -26 6 -23 14 3 7
-1 13 -9 13 -8 0 -15 7 -15 15 0 8 6 12 14 9 8 -3 16 -1 20 4 3 5 -5 7 -17 6
-12 -1 -31 -3 -41 -3 -18 -1 -18 -2 -3 -19 15 -16 15 -19 2 -19 -17 0 -29 32
-19 49 6 10 4 10 -7 2 -8 -6 -24 -10 -36 -9 -13 1 -23 -2 -23 -7 0 -4 8 -8 19
-8 10 0 25 -7 32 -17 13 -15 11 -16 -13 -9 -21 5 -28 3 -28 -9 0 -8 -5 -15
-10 -15 -7 0 -7 6 -1 18 7 14 5 21 -10 30 -16 10 -19 9 -19 -4 0 -8 5 -12 10
-9 14 9 12 -7 -4 -28 -12 -16 -14 -16 -20 -2 -4 11 -2 14 6 9 7 -5 8 -3 3 6
-6 10 -11 9 -22 -5 -7 -11 -13 -22 -13 -27 0 -4 -5 -8 -11 -8 -8 0 -7 5 2 16
10 13 10 17 -1 24 -7 4 -10 15 -7 25 4 10 3 14 -4 9 -6 -3 -9 -17 -6 -30 2
-13 1 -21 -4 -19 -4 3 -11 1 -14 -5 -5 -8 -11 -8 -20 0 -8 7 -19 9 -25 5 -5
-3 -10 -4 -10 -1 0 3 10 10 21 17 13 7 19 7 15 1 -3 -6 -2 -13 4 -17 5 -3 11
0 12 7 0 7 2 18 2 23 1 6 5 16 9 22 6 9 3 11 -7 7 -9 -3 -16 -10 -16 -15 0 -8
-51 -39 -65 -39 -3 0 -5 8 -6 18 0 10 -3 12 -6 4 -2 -6 -9 -9 -15 -6 -6 4 -8
-1 -4 -14 6 -19 4 -20 -21 -13 -15 4 -34 6 -42 3 -7 -2 -17 2 -22 9 -7 11 -9
11 -9 1 0 -7 10 -17 23 -22 12 -5 18 -9 13 -9 -6 -1 -1 -7 10 -15 14 -11 21
-11 26 -3 4 7 6 2 5 -10 -2 -29 -42 -52 -60 -34 -10 11 -8 12 10 7 25 -8 41
10 24 27 -8 8 -11 7 -11 -6 0 -11 -5 -14 -16 -10 -12 5 -13 7 -2 14 10 6 10
11 0 21 -9 9 -15 9 -24 0 -7 -7 -17 -12 -23 -12 -5 0 -2 7 8 14 15 12 17 18 7
35 -9 18 -30 21 -30 5 0 -3 5 -2 12 2 7 4 8 3 4 -4 -4 -7 -17 -10 -29 -8 -12
2 -31 -1 -42 -6 -19 -8 -19 -8 -2 5 24 20 21 30 -4 17 -11 -7 -23 -9 -27 -6
-3 3 0 6 6 6 7 0 12 8 12 18 0 9 -4 13 -8 7 -12 -16 -62 -16 -62 0 0 9 6 12
16 8 12 -4 15 -2 12 8 -3 8 -12 12 -19 10 -8 -2 -22 -4 -32 -5 -10 0 -15 -6
-13 -13 3 -7 1 -15 -3 -18 -5 -2 -11 5 -14 16 -4 14 -11 20 -21 16 -8 -3 -17
-1 -19 6 -5 11 -6 -4 -7 -60 0 -13 -5 -23 -11 -23 -6 0 -9 6 -6 14 3 8 -2 17
-11 21 -16 6 -16 7 0 16 26 15 22 27 -7 21 -19 -3 -24 -9 -21 -26 3 -11 5 -27
5 -34 1 -8 6 -10 14 -6 9 5 9 4 0 -6 -14 -16 -34 -4 -26 16 4 12 1 13 -20 3
-14 -6 -28 -20 -30 -30 -4 -13 -11 -17 -21 -13 -9 4 -16 3 -15 -2 1 -5 1 -17
0 -26 -2 -29 -16 -20 -18 11 -1 21 3 30 17 34 10 3 21 0 23 -7 2 -6 4 11 4 37
1 42 -1 46 -14 35 -10 -8 -11 -14 -4 -16 16 -5 -6 -42 -26 -42 -9 0 -22 8 -29
18 -13 16 -14 16 -8 -3 5 -16 4 -17 -5 -5 -9 12 -11 13 -11 1 0 -8 -3 -11 -6
-8 -10 10 18 39 32 33 20 -8 25 23 6 33 -23 12 -69 9 -69 -5 0 -6 6 -11 14
-11 7 0 13 5 13 10 0 6 2 8 5 5 10 -9 -7 -38 -18 -31 -6 4 -8 1 -5 -8 4 -10
-3 -14 -29 -14 -22 -1 -32 3 -29 11 3 7 -5 15 -17 18 -12 3 -23 1 -25 -4 -2
-6 -10 -10 -18 -10 -9 0 -12 -4 -9 -10 3 -5 1 -10 -5 -10 -6 0 -10 8 -8 18 2
10 -2 16 -11 14 -8 -2 -27 0 -44 4 -21 4 -26 9 -16 15 8 4 19 3 26 -3 10 -8
13 -6 13 6 0 14 4 15 20 6 16 -8 18 -8 14 4 -3 8 -14 16 -24 19 -13 3 -17 11
-13 25 5 22 -12 38 -23 21 -4 -8 -3 -9 4 -5 7 4 12 2 12 -3 0 -6 -8 -11 -17
-11 -15 0 -15 -2 -4 -9 23 -15 21 -38 -3 -37 -23 1 -23 1 -36 -44 -8 -27 -7
-30 8 -26 9 3 23 2 31 -3 9 -6 4 -8 -17 -7 -17 1 -34 5 -38 9 -14 13 -27 7
-14 -7 6 -8 24 -16 38 -18 18 -2 26 -8 23 -18 -11 -47 -7 -65 10 -54 6 4 6 10
0 18 -8 9 -6 18 8 30 24 22 41 14 33 -16 -4 -16 -2 -19 8 -13 10 6 12 4 7 -8
-3 -9 -2 -19 3 -22 6 -4 10 -1 10 4 0 14 27 14 32 1 2 -6 14 -1 27 12 l24 22
-5 -22 c-6 -20 -5 -20 18 -5 15 9 24 11 24 4 0 -6 -5 -11 -10 -11 -6 0 -6 -6
2 -13 10 -12 15 -12 26 0 18 18 27 17 12 -2 -7 -8 -9 -15 -4 -16 5 -1 -2 -5
-16 -9 -25 -8 -25 -8 -2 -9 16 -1 21 -5 16 -13 -5 -8 0 -7 11 2 13 10 19 12
22 3 2 -6 17 -9 36 -7 l32 4 -25 -14 -25 -15 25 -2 c17 -1 20 -3 7 -6 -21 -6
-23 -33 -1 -33 8 0 13 -4 9 -9 -3 -5 0 -13 6 -17 8 -5 9 -3 4 6 -6 10 -3 12
13 8 15 -4 19 -2 15 8 -3 8 -8 12 -12 10 -3 -2 -6 11 -6 29 -1 29 2 32 17 24
21 -12 24 -21 4 -13 -11 4 -13 0 -9 -15 3 -12 9 -21 13 -21 13 0 29 47 23 69
-3 12 -2 21 2 21 7 0 49 -49 51 -60 3 -19 18 -39 25 -34 14 8 10 -12 -4 -25
-8 -6 -18 -7 -22 -3 -5 4 -5 1 -1 -6 6 -10 11 -10 21 -2 8 7 19 9 25 5 7 -4
10 0 8 10 -2 10 3 20 11 23 10 3 12 0 8 -12 -4 -9 -2 -16 3 -16 6 0 10 4 10 9
0 12 41 11 58 -2 9 -7 12 -3 12 14 0 17 3 20 9 11 6 -10 10 -7 15 13 4 14 4
29 2 34 -3 4 2 8 11 8 9 0 18 -7 20 -16 9 -36 88 -46 96 -13 4 13 5 11 6 -5 1
-16 -7 -23 -36 -31 -35 -10 -34 -10 19 -6 32 3 59 1 62 -5 4 -6 -3 -8 -16 -6
-22 4 -22 3 -5 -10 20 -15 51 -9 41 7 -4 6 3 5 16 -2 12 -6 19 -18 16 -25 -3
-9 5 -13 27 -13 64 1 73 -1 57 -12 -12 -8 -11 -10 5 -10 12 0 27 -6 34 -12 10
-9 12 -9 7 -1 -3 6 -2 14 4 18 5 3 10 -1 10 -10 0 -9 4 -14 9 -11 5 3 12 -2
15 -11 5 -12 10 -13 18 -5 8 8 19 6 40 -9 18 -13 28 -16 28 -8 0 8 5 7 18 -3
27 -24 63 -32 74 -17 6 10 7 7 3 -10 -6 -18 -4 -22 6 -15 17 10 50 13 44 3 -6
-8 20 -31 27 -23 3 2 8 -2 12 -11 4 -10 -2 -19 -17 -25 -19 -8 -20 -9 -3 -9
11 -1 27 6 37 15 18 17 39 12 39 -9 0 -7 -4 -6 -10 3 -13 20 -24 6 -12 -16 9
-16 11 -16 23 4 8 12 17 22 22 22 4 0 5 -4 2 -10 -4 -6 6 -11 22 -11 l28 -1
-30 -7 c-24 -5 -27 -8 -15 -16 55 -36 85 -40 74 -11 -3 7 2 13 10 13 8 0 12
-6 9 -13 -3 -9 2 -12 17 -9 17 3 19 1 11 -9 -6 -7 -8 -16 -4 -19 13 -14 23 -6
23 18 0 14 5 25 11 25 6 0 8 -9 4 -21 l-7 -22 23 22 c12 11 28 21 33 21 6 0 3
-7 -6 -14 -21 -15 -24 -30 -5 -23 8 3 14 -4 15 -19 1 -13 -3 -24 -8 -24 -5 0
-7 6 -4 13 3 8 -5 13 -21 15 -15 1 -24 -2 -20 -8 4 -7 -3 -7 -19 0 -16 6 -27
6 -31 0 -4 -6 7 -13 24 -16 17 -4 28 -10 25 -15 -3 -5 -10 -7 -15 -3 -5 3 -9
2 -8 -3 3 -20 -2 -25 -16 -13 -8 7 -12 16 -9 21 3 5 0 9 -5 9 -16 0 -13 -16 4
-30 13 -11 13 -15 3 -21 -10 -7 -10 -9 2 -9 10 0 11 -3 3 -11 -14 -14 -36 -2
-27 14 4 8 2 7 -7 -1 -12 -11 -12 -14 1 -22 8 -6 21 -8 28 -5 6 2 12 -3 12
-11 0 -11 -6 -15 -20 -11 -11 3 -20 2 -20 -2 0 -4 -7 -16 -16 -27 -8 -10 -12
-12 -8 -4 7 12 5 13 -8 3 -8 -7 -18 -10 -21 -6 -4 3 -7 1 -7 -5 0 -6 9 -16 20
-22 11 -6 20 -16 19 -23 0 -8 -2 -8 -6 1 -4 10 -11 8 -29 -9 -21 -20 -22 -23
-7 -34 13 -9 13 -14 3 -20 -9 -5 -11 -4 -6 3 5 8 -1 12 -16 12 -13 0 -30 6
-37 13 -11 10 -11 8 -2 -10 12 -24 2 -37 -23 -27 -12 4 -14 0 -11 -23 2 -15 2
-22 -1 -15 -5 10 -9 10 -22 0 -13 -11 -14 -11 -8 1 6 9 1 8 -17 -3 -23 -16
-25 -16 -30 4 -3 11 -1 18 4 14 5 -3 9 -1 9 4 0 21 -39 20 -54 -2 -11 -15 -14
-16 -10 -4 4 12 0 20 -12 25 -10 4 -19 2 -22 -5 -5 -17 -19 -15 -19 3 0 8 5
15 10 15 6 0 7 3 4 6 -4 4 -14 1 -22 -6 -9 -7 -32 -13 -51 -12 -19 1 -33 -2
-30 -6 2 -4 -4 -8 -15 -8 -10 0 -19 4 -19 8 0 4 5 8 12 8 6 0 8 3 5 6 -9 9
-38 -16 -31 -27 5 -9 -9 -13 -34 -10 -7 1 -15 -5 -19 -14 -5 -13 -7 -14 -14
-3 -7 10 -9 9 -9 -4 0 -17 -2 -17 -32 1 -18 10 -39 16 -45 14 -7 -3 -13 1 -13
9 0 11 -2 11 -9 -1 -7 -11 -13 -10 -35 4 -25 16 -28 16 -45 1 -24 -22 -40 -20
-51 7 -8 20 -9 20 -10 2 -1 -19 -1 -19 -14 -2 -13 17 -15 16 -36 -10 -18 -22
-22 -24 -18 -8 4 17 0 20 -29 21 -74 3 -72 2 -66 35 4 25 1 30 -14 27 -12 -2
-18 4 -19 20 -1 12 3 25 7 28 5 3 9 13 9 22 0 15 -2 15 -10 2 -9 -13 -10 -13
-10 0 0 13 -1 13 -10 0 -9 -13 -14 -7 -11 12 0 4 -6 5 -14 2 -17 -7 -29 19
-34 69 -1 4 -10 3 -21 -3 -16 -9 -18 -8 -14 5 4 9 9 13 12 11 3 -3 11 -1 18 5
8 7 14 7 19 -1 8 -13 25 -13 25 1 0 5 -5 7 -11 3 -8 -4 -9 1 -4 17 7 22 7 22
-9 6 -17 -16 -36 -15 -36 2 0 8 37 24 52 22 3 0 9 6 12 15 4 11 2 12 -13 4
-31 -16 -32 21 -2 47 l26 22 -30 6 c-24 5 -30 12 -32 36 -2 24 0 27 11 17 8
-7 11 -17 8 -22 -3 -5 0 -6 6 -2 16 10 15 37 0 33 -8 -1 -12 6 -10 18 2 15 1
17 -6 6 -8 -11 -10 -11 -15 0 -3 8 -4 -2 -3 -22 2 -28 -3 -40 -18 -49 -19 -12
-20 -12 -8 3 14 17 7 41 -9 32 -5 -4 -9 -1 -9 4 0 6 -5 11 -11 11 -5 0 -7 -5
-3 -12 5 -7 3 -8 -5 -4 -17 11 18 45 39 39 13 -4 13 -4 0 6 -8 6 -10 11 -5 11
6 0 1 7 -10 16 -17 13 -18 16 -5 25 13 9 12 10 -2 5 -10 -3 -20 -1 -23 4 -4 6
0 10 7 11 7 0 2 5 -11 10 -30 12 -38 5 -18 -15 16 -16 16 -52 1 -50 -5 1 -20
5 -34 8 -23 6 -23 6 -7 -7 9 -8 17 -20 17 -27 0 -10 -4 -9 -17 1 -11 9 -14 10
-9 2 5 -9 2 -11 -9 -7 -13 5 -13 9 -3 22 11 13 10 15 -4 9 -10 -3 -18 -3 -18
2 0 8 38 24 53 22 11 -2 9 37 -3 44 -6 4 -7 -1 -3 -11 5 -14 3 -16 -11 -11 -9
4 -15 3 -12 -1 2 -4 -7 -8 -21 -9 -19 -1 -22 1 -12 8 12 7 12 9 0 9 -8 0 -20
-8 -27 -17 -12 -17 -13 -17 -14 -1 0 9 5 20 10 23 6 3 10 16 10 28 0 16 3 18
9 9 6 -11 9 -9 13 6 4 15 1 20 -12 19 -10 -1 -18 -4 -18 -7 3 -30 -5 -50 -22
-55 -11 -3 -20 -11 -20 -16 0 -6 6 -7 13 -4 6 4 4 0 -6 -9 -18 -14 -17 -15 9
-18 15 -2 29 -10 31 -18 4 -12 3 -13 -5 -1 -7 10 -21 12 -50 7 -45 -7 -54 0
-45 33 4 17 8 19 14 10 4 -8 12 -10 16 -5 4 5 2 11 -5 13 -6 3 -10 9 -7 13 3
5 1 12 -5 15 -6 4 -9 1 -8 -7 2 -7 -2 -12 -9 -11 -7 2 -10 -3 -7 -11 5 -14
-21 -76 -32 -76 -3 0 -2 5 1 10 3 6 2 10 -4 10 -5 0 -15 -8 -20 -17 -6 -10
-11 -14 -11 -10 0 5 11 23 25 41 19 24 21 33 10 33 -8 0 -15 -6 -15 -12 0 -7
-8 -19 -17 -26 -16 -12 -17 -12 -8 1 6 8 12 29 13 45 1 17 -1 24 -4 17 -3 -6
-10 -9 -16 -6 -5 3 -8 -2 -6 -11 2 -10 -3 -20 -10 -23 -10 -3 -13 5 -11 31 2
20 -1 40 -5 44 -5 4 -6 2 -2 -5 4 -7 1 -15 -9 -18 -13 -6 -14 -8 -3 -15 9 -6
7 -9 -9 -9 -16 0 -21 -6 -20 -20 1 -11 7 -20 14 -20 7 0 13 -4 13 -8 0 -4 -9
-8 -19 -8 -11 0 -17 5 -14 10 4 5 -1 7 -10 3 -14 -5 -15 -3 -4 21 6 15 15 30
20 33 5 3 9 10 10 15 1 5 6 8 12 6 5 -1 2 4 -7 11 -10 8 -16 17 -13 20 3 4 2
4 -2 1 -4 -3 -8 -12 -8 -21 0 -10 -11 -17 -28 -19 -22 -2 -27 1 -23 12 3 8 1
14 -5 14 -6 0 -9 -11 -7 -25 2 -13 -1 -24 -7 -24 -5 1 -9 5 -8 9 1 5 -12 13
-29 19 -26 9 -35 8 -51 -6 -20 -17 -20 -17 -13 1 5 15 4 17 -8 7 -11 -9 -15
-9 -18 1 -3 7 2 18 11 25 13 10 10 12 -20 10 -30 -2 -35 -5 -31 -21 4 -14 1
-17 -8 -11 -17 10 -31 -14 -23 -42 3 -13 1 -23 -4 -23 -6 0 -10 16 -11 36 -2
47 -23 96 -39 89 -7 -2 -13 -1 -13 3 0 5 -6 17 -14 28 -14 19 -14 19 -13 -1 1
-13 -4 -20 -15 -20 -10 0 -24 -9 -31 -19 -17 -24 -48 -31 -40 -9 3 8 12 12 19
9 8 -3 14 -1 14 4 0 14 -23 12 -39 -2 -11 -10 -13 -10 -7 0 5 7 1 12 -11 12
-17 1 -17 1 0 14 9 7 17 17 17 22 0 4 -5 3 -12 -4 -8 -8 -17 -8 -32 -1 -18 9
-19 8 -6 -3 21 -18 21 -47 1 -43 -9 1 -15 9 -13 16 3 11 1 12 -9 2 -18 -17
-29 -16 -29 3 0 9 -5 12 -12 8 -6 -4 -8 -3 -5 3 4 6 1 13 -7 16 -11 4 -12 -2
-6 -28 5 -24 4 -38 -5 -45 -9 -8 -14 -6 -18 4 -4 10 -1 13 9 9 14 -5 14 -3 3
15 -15 24 -46 35 -53 18 -2 -6 -5 -3 -5 7 -1 9 3 17 9 17 5 0 6 7 3 17 -4 9
-2 14 3 10 6 -3 16 -2 24 4 12 7 10 9 -8 9 -12 0 -25 -7 -28 -15 -4 -8 -13
-15 -21 -15 -13 0 -13 -3 -3 -15 18 -22 -3 -18 -33 5 -29 23 -55 28 -35 6 7
-8 16 -12 20 -9 13 7 9 -12 -7 -33 -12 -15 -14 -16 -9 -2 4 13 1 16 -14 13
-15 -3 -18 1 -15 20 4 18 1 22 -19 21 -12 0 -26 -5 -30 -11 -4 -5 -6 0 -6 11
2 16 7 19 25 16 13 -2 23 1 23 7 0 6 -9 11 -19 11 -11 0 -23 5 -26 10 -3 6 -1
10 6 10 7 0 9 3 6 7 -4 3 -1 13 6 21 9 13 9 14 0 8 -8 -4 -13 -2 -13 6 0 8 -5
6 -11 -5 -5 -9 -7 -22 -4 -27 3 -6 2 -10 -3 -10 -5 0 -8 -13 -7 -30 1 -16 -2
-27 -7 -24 -4 3 -8 0 -8 -6 0 -6 -5 -8 -10 -5 -6 4 -18 1 -27 -7 -12 -9 -15
-9 -9 0 4 6 3 12 -2 12 -6 0 -12 -7 -16 -15 -3 -8 -11 -15 -18 -15 -9 0 -10 3
-2 8 6 4 16 17 22 29 9 16 9 23 -1 26 -7 3 -4 6 7 6 12 1 16 -4 12 -14 -4 -11
1 -15 18 -15 13 0 27 7 30 16 10 25 7 27 -11 13 -16 -13 -17 -12 -5 3 8 10 9
19 3 22 -5 3 -11 0 -14 -6 -7 -19 -40 4 -48 33 -5 17 -7 18 -8 6 -1 -14 -5
-16 -20 -8 -10 6 -21 8 -24 5 -3 -3 -15 -1 -26 6 -16 8 -21 8 -21 -2 0 -9 -3
-9 -10 2 -5 8 -10 11 -10 5 0 -5 -5 -3 -10 5 -6 9 -10 11 -10 3 0 -7 -7 -10
-15 -7 -8 4 -12 11 -9 16 4 6 1 9 -6 6 -22 -7 -22 -26 0 -33 11 -3 17 -11 14
-17 -4 -6 -10 -5 -15 3 -6 10 -9 11 -9 2 0 -7 -5 -13 -12 -13 -6 0 -8 3 -5 6
3 4 2 15 -4 25 -7 13 -6 19 1 19 6 0 8 5 5 11 -5 6 -12 4 -20 -8 -11 -14 -10
-19 4 -30 15 -11 15 -12 0 -13 -16 0 -34 26 -30 43 1 5 -3 6 -8 3 -5 -3 -14 1
-21 9 -7 8 -17 12 -23 8 -6 -4 -8 0 -5 9 4 8 1 15 -5 16 -54 7 -62 6 -65 -12
-3 -15 0 -18 17 -13 14 3 21 0 21 -9 0 -8 -7 -14 -16 -12 -10 2 -19 -2 -21 -7
-2 -6 12 -11 32 -12 24 0 35 4 35 13 0 17 5 17 30 4 12 -7 16 -17 13 -31 -4
-15 -3 -20 5 -15 7 4 12 2 12 -4 0 -7 7 -10 14 -7 9 4 17 -2 21 -14 4 -10 11
-17 16 -14 5 3 6 -1 2 -11 -5 -14 -8 -13 -19 7 -8 15 -14 18 -14 9 0 -12 -3
-11 -11 3 -8 14 -14 16 -25 6 -14 -12 -19 -3 -15 29 1 6 -3 12 -9 12 -5 0 -10
-9 -10 -20 0 -11 -5 -20 -11 -20 -5 0 -7 5 -4 10 3 6 1 10 -5 10 -6 0 -9 4 -6
9 3 5 0 9 -7 8 -38 -1 -57 5 -57 17 0 18 -16 29 -30 21 -13 -8 0 -36 14 -28 6
3 6 1 -1 -8 -19 -19 -16 -34 4 -18 13 11 17 11 20 2 3 -7 9 -13 14 -13 6 0 7
5 3 12 -4 6 -3 8 3 5 9 -6 10 -21 4 -62 -1 -5 -5 -3 -11 5 -5 8 -11 12 -14 9
-3 -3 5 -15 19 -27 14 -12 25 -17 25 -12 0 6 5 10 11 10 5 0 8 -4 5 -9 -8 -12
19 -33 29 -23 5 4 5 1 1 -6 -4 -7 -17 -10 -32 -6 -17 4 -26 1 -30 -10 -3 -9
-10 -13 -16 -10 -5 3 -4 -4 4 -15 13 -22 13 -22 16 4 3 23 22 37 22 15 0 -5 6
-10 14 -10 7 0 16 -12 19 -27 6 -34 -4 -54 -14 -27 -6 16 -8 16 -8 2 -1 -9 -9
-22 -18 -27 -10 -6 -13 -11 -6 -11 7 0 10 -7 6 -17 -5 -12 -3 -14 8 -8 11 7
12 6 2 -7 -14 -16 -8 -28 10 -24 7 2 8 1 4 -2 -4 -2 -1 -14 7 -27 8 -12 14
-32 13 -43 -1 -23 -17 -19 -17 5 0 10 -6 13 -16 9 -9 -3 -22 -6 -29 -6 -11 0
-11 -6 2 -30 8 -17 12 -38 9 -48 -6 -16 -5 -16 7 0 9 12 21 15 38 11 20 -5 22
-4 12 8 -10 12 -8 15 8 16 21 2 26 -12 8 -23 -7 -4 1 -14 20 -26 30 -19 31
-22 16 -44 -14 -22 -13 -24 5 -34 15 -8 20 -8 20 1 0 7 3 9 7 6 3 -4 12 1 19
11 12 14 12 12 3 -15 -6 -19 -15 -30 -22 -26 -5 3 -7 1 -3 -5 3 -5 1 -12 -6
-14 -6 -2 14 -5 45 -5 33 0 58 4 60 11 2 6 3 4 2 -4 -2 -8 -6 -23 -10 -33 -6
-13 -3 -16 9 -11 9 3 13 11 9 18 -4 6 2 4 12 -4 17 -14 18 -13 12 2 -5 15 -4
16 13 5 23 -14 27 -29 5 -21 -10 4 -15 0 -15 -12 0 -13 -3 -15 -11 -7 -14 14
-39 6 -33 -11 3 -7 -2 -13 -11 -13 -9 0 -14 6 -11 14 3 7 1 13 -4 13 -6 0 -10
-9 -10 -20 0 -12 -5 -17 -14 -14 -8 3 -17 0 -21 -6 -3 -6 -3 -10 2 -9 21 4 32
-2 27 -15 -4 -10 1 -14 15 -13 15 1 19 6 15 19 -7 23 12 24 24 1 9 -14 11 -14
21 5 7 12 17 22 24 21 9 0 9 -2 0 -6 -8 -3 -11 -15 -8 -31 4 -21 3 -23 -3 -8
-6 14 -11 16 -16 8 -4 -7 -11 -10 -16 -7 -5 3 -11 1 -14 -4 -4 -5 -2 -12 4
-16 5 -3 10 -14 9 -23 0 -14 -2 -14 -8 2 -4 11 -16 21 -27 22 -17 2 -17 2 -2
-10 12 -9 14 -16 6 -29 -5 -10 -13 -15 -19 -12 -15 10 -10 -12 6 -25 11 -9 15
-9 15 -1 0 7 4 10 9 6 5 -3 13 -1 16 5 4 6 3 9 -2 8 -4 -2 -9 2 -11 7 -1 6 3
10 8 10 6 0 15 7 20 15 7 11 10 11 10 2 0 -7 5 -10 10 -7 6 4 8 11 5 16 -4 5
-4 9 -1 9 3 0 11 -10 17 -22 6 -13 8 -20 4 -16 -10 9 -40 -30 -31 -39 3 -4 24
-7 45 -7 22 0 37 -4 35 -8 -3 -5 -10 -6 -15 -2 -5 3 -15 1 -22 -4 -7 -5 -21
-12 -32 -15 -11 -4 4 -4 32 -2 31 2 56 -1 59 -7 4 -6 2 -8 -4 -5 -7 5 -6 -1 1
-17 10 -22 13 -22 25 -7 7 9 11 10 7 4 -10 -20 23 -16 33 4 9 14 10 14 16 -5
8 -22 26 -30 26 -11 0 6 5 7 12 2 17 -10 38 -13 38 -5 0 4 11 8 25 8 15 1 25
-3 25 -12 0 -8 5 -14 11 -14 6 0 9 7 5 15 -4 12 -2 13 14 3 21 -13 10 -28 -22
-28 -9 0 -19 -6 -22 -12 -3 -7 -4 0 0 17 5 29 5 29 -15 11 -12 -11 -21 -15
-21 -10 0 5 -5 2 -11 -6 -10 -13 -10 -13 -6 0 4 13 -2 15 -29 12 -27 -3 -34
-1 -34 12 0 10 -5 14 -10 11 -6 -4 -7 -12 -3 -18 4 -7 8 -15 8 -19 0 -11 15
-22 15 -11 0 15 33 12 53 -5 11 -10 17 -11 17 -4 0 21 15 12 33 -20 14 -24 15
-33 5 -39 -9 -6 -5 -11 12 -18 14 -5 23 -10 20 -11 -27 -8 -53 -9 -42 -2 10 7
8 12 -7 26 -19 18 -40 18 -54 1 -5 -6 -6 -2 -3 8 3 11 2 16 -4 12 -14 -8 -13
-18 5 -41 12 -15 14 -15 9 -2 -4 12 0 16 13 15 14 -1 19 -9 20 -31 1 -17 -1
-23 -4 -13 -5 18 -32 20 -45 2 -5 -6 -8 -6 -8 2 0 7 -14 12 -33 11 -47 0 -65
-7 -70 -26 -3 -12 -5 -11 -6 6 0 12 -6 22 -12 22 -7 0 -9 -9 -5 -24 4 -16 1
-26 -9 -29 -10 -4 -12 -1 -8 10 5 13 2 15 -12 10 -16 -7 -16 -5 -4 10 11 14 9
14 -9 -2 -20 -17 -26 -17 -45 -5 -19 12 -21 11 -10 -2 7 -8 9 -19 5 -23 -4 -5
-1 -5 5 -1 9 5 11 2 7 -8 -3 -9 -11 -14 -17 -13 -7 1 -11 -4 -9 -12 3 -12 0
-12 -12 -1 -12 9 -16 9 -16 1 0 -7 -5 -9 -12 -5 -7 4 -8 3 -4 -5 4 -6 11 -9
15 -7 4 3 7 -7 8 -22 0 -15 -1 -19 -4 -9 -5 19 -12 21 -33 7 -9 -6 -19 -5 -29
3 -12 10 -13 8 -9 -11 5 -19 4 -21 -8 -11 -11 9 -14 8 -14 -2 0 -11 -2 -11
-10 1 -8 12 -10 12 -10 1 0 -9 -4 -10 -12 -4 -20 15 -145 5 -173 -13 -14 -9
-25 -12 -25 -8 0 5 -5 2 -11 -6 -9 -12 -10 -12 -5 4 4 11 1 23 -5 27 -17 10
-111 -1 -128 -15 -11 -8 -13 -8 -7 2 5 8 -2 12 -24 12 -18 0 -29 -4 -25 -10 3
-5 1 -10 -4 -10 -6 0 -11 6 -11 13 -1 6 -10 1 -22 -13 -18 -22 -20 -23 -14 -4
5 18 2 21 -23 21 -17 0 -28 -4 -25 -8 2 -4 0 -11 -6 -14 -6 -4 -9 -1 -8 6 2 6
-3 14 -11 17 -8 3 -11 0 -7 -7 5 -7 1 -9 -8 -5 -9 3 -13 11 -9 18 4 6 -1 5
-10 -3 -9 -7 -15 -17 -12 -20 2 -4 -2 -8 -9 -8 -8 0 -12 5 -10 11 2 6 -7 12
-21 12 -22 2 -24 0 -13 -14 11 -13 10 -14 -8 -4 -22 12 -35 6 -52 -23 -11 -18
-12 -17 -6 10 l5 30 -19 -22 c-11 -13 -25 -23 -32 -23 -6 0 -8 -6 -4 -12 5
-10 4 -10 -6 -1 -9 8 -19 9 -37 0 -19 -8 -26 -8 -32 2 -17 27 -22 -26 -21
-226 1 -187 3 -203 18 -191 10 8 13 9 9 1 -4 -6 -3 -14 3 -18 5 -3 11 -21 11
-38 1 -24 3 -26 6 -9 5 25 33 31 33 6 0 -11 6 -14 23 -8 12 3 24 11 25 15 2 5
8 9 13 9 6 0 8 -4 5 -9 -6 -10 47 -23 66 -16 7 3 31 -2 53 -10 39 -14 40 -14
10 -16 -16 -1 -37 -1 -45 0 -12 1 -12 0 -2 -7 7 -5 25 -7 40 -5 22 3 23 2 8
-5 -18 -8 -18 -9 -2 -15 10 -4 26 -7 37 -7 10 0 19 -7 19 -15 0 -8 -9 -15 -20
-15 -11 0 -20 5 -20 10 0 6 -8 10 -17 10 -15 0 -16 -2 -3 -10 18 -11 -58 -14
-109 -4 -45 9 -44 43 2 40 19 0 34 3 34 9 0 14 -110 15 -119 1 -5 -7 -8 -7 -8
3 0 7 -6 11 -15 7 -17 -6 -51 24 -37 33 14 9 10 41 -4 41 -11 0 -14 -364 -14
-2060 l0 -2060 6625 0 6625 0 0 3260 0 3260 -95 0 -95 0 -2 -2747 -3 -2748
-1845 0 -1845 0 -3 253 -2 252 50 0 50 0 0 1708 c0 1640 1 1709 19 1747 10 22
31 52 47 67 66 61 -4 58 1236 58 1081 0 1135 -1 1173 -19 49 -23 89 -64 109
-113 14 -33 16 -224 16 -1743 l0 -1705 425 0 425 0 0 2295 0 2295 -1775 0
-1775 0 0 200 0 200 -1214 0 c-790 0 -1217 -3 -1221 -10z m3122 -501 c66 -24
114 -97 112 -166 -1 -34 -2 -32 -9 15 -9 62 -44 112 -93 136 -29 13 -71 16
-246 16 -238 0 -261 -5 -306 -64 -56 -73 -42 -177 31 -232 l37 -29 237 0 237
0 35 27 c19 15 42 42 51 60 10 19 17 26 17 16 0 -25 -59 -89 -97 -104 -40 -17
-436 -20 -480 -3 -87 32 -135 139 -102 226 14 37 57 82 94 99 38 17 439 20
482 3z m2660 -460 c24 -12 42 -23 40 -25 -2 -2 -21 5 -42 16 -38 19 -61 20
-835 20 -774 0 -797 -1 -835 -20 -21 -11 -40 -18 -42 -16 -2 2 15 13 39 25 43
21 48 21 837 21 789 0 795 0 838 -21z m-8975 -191 c14 3 19 1 14 -6 -5 -8 1
-12 16 -12 16 0 19 3 10 9 -10 6 -9 10 7 14 12 3 21 1 21 -4 0 -6 8 -5 19 1
14 7 22 7 27 -2 4 -7 3 -8 -4 -4 -7 4 -12 1 -12 -7 0 -13 33 -31 53 -28 4 1 7
-4 7 -10 0 -5 5 -7 10 -4 6 3 10 -4 10 -16 0 -20 2 -21 18 -7 26 23 42 30 42
19 0 -5 -8 -12 -17 -14 -11 -3 -7 -5 10 -6 20 -1 26 3 21 12 -4 6 -4 9 1 5 4
-4 14 -3 21 3 8 7 14 7 19 -1 5 -8 12 -5 22 7 8 10 11 12 7 4 -5 -11 -2 -13
16 -8 13 3 19 2 14 -3 -5 -4 -18 -10 -29 -13 -14 -3 -10 -5 11 -6 16 0 35 4
41 10 9 9 12 7 10 -8 -1 -14 -6 -19 -19 -15 -17 4 -23 -6 -19 -37 2 -7 -3 -10
-9 -6 -6 4 -8 15 -5 25 4 14 1 17 -12 15 -10 -2 -20 -4 -23 -4 -3 -1 -6 -10
-7 -21 -1 -11 2 -18 8 -15 5 4 12 -1 15 -9 3 -9 10 -13 15 -10 5 3 9 1 9 -4 0
-6 -12 -13 -27 -17 -21 -5 -24 -8 -13 -15 11 -7 6 -13 -20 -24 -19 -8 -29 -15
-22 -16 7 0 10 -5 7 -11 -5 -6 -12 -4 -21 8 -8 11 -13 13 -14 6 0 -7 -7 -13
-15 -13 -8 0 -14 3 -14 8 3 19 -2 32 -13 32 -9 0 -9 -3 -1 -11 13 -13 6 -42
-8 -33 -5 3 -9 -1 -9 -8 0 -9 -3 -9 -10 2 -6 10 -10 11 -10 3 0 -17 -67 -17
-72 -1 -3 7 -7 2 -11 -11 -5 -21 -3 -23 23 -19 16 2 27 1 24 -3 -2 -4 2 -10 8
-13 7 -3 1 -3 -15 1 -15 3 -34 0 -42 -7 -18 -15 -24 -11 -29 16 -3 11 -7 26
-11 36 -4 11 0 18 12 21 16 5 16 6 -2 5 -11 0 -22 1 -25 2 -3 1 -16 3 -30 6
-56 9 -71 15 -64 25 4 8 9 7 15 -2 4 -7 11 -10 15 -6 9 8 -38 47 -49 40 -5 -3
-6 -12 -2 -20 5 -13 3 -14 -10 -3 -9 7 -12 16 -8 19 8 5 9 26 3 34 -9 11 -5
38 6 48 8 6 14 8 15 3 0 -5 7 7 14 26 7 19 14 27 14 18 1 -10 9 -18 19 -18 10
0 24 -6 31 -12 11 -10 13 -10 7 0 -5 8 0 12 16 13 13 0 17 3 11 6 -7 2 -13 11
-13 19 0 8 -5 13 -11 12 -6 -2 -13 3 -14 10 -2 7 -1 8 1 3 3 -5 14 -6 26 -3z
m9018 -97 c0 -5 -19 -19 -43 -30 -43 -21 -52 -21 -837 -21 -788 0 -794 0 -837
21 -24 12 -42 23 -40 25 1 2 21 -6 43 -16 40 -20 59 -20 847 -18 l806 3 28 22
c33 26 33 26 33 14z m-10992 -202 c2 -4 10 -5 18 -2 7 3 11 9 8 14 -3 5 -1 9
4 9 6 0 13 -7 16 -16 3 -8 2 -13 -3 -9 -5 3 -11 -1 -14 -7 -3 -10 -9 -10 -23
-2 -11 6 -28 8 -39 4 -17 -6 -16 -8 8 -14 18 -4 25 -11 20 -19 -5 -8 -2 -8 9
1 17 14 72 6 63 -8 -3 -5 -1 -11 5 -15 5 -3 10 -2 10 4 0 14 30 7 41 -10 7
-11 9 -11 9 4 0 20 16 23 23 5 3 -8 6 -7 6 4 1 9 5 20 11 23 5 3 7 0 4 -8 -3
-9 2 -13 18 -12 26 3 51 -13 42 -27 -3 -5 -12 -4 -20 3 -12 10 -13 9 -8 -5 10
-25 30 -18 53 19 11 18 12 18 6 -7 -7 -34 2 -37 14 -5 6 14 5 27 -3 36 -9 12
-7 12 14 0 14 -7 34 -13 44 -14 11 0 21 -7 23 -15 3 -9 1 -11 -4 -5 -13 16
-31 16 -37 0 -3 -9 0 -15 9 -15 10 0 12 -6 8 -17 -6 -17 -6 -17 11 0 14 14 21
15 32 6 12 -9 12 -15 2 -28 -11 -14 -11 -14 3 -3 9 7 24 10 33 6 18 -7 22 -24
5 -24 -5 0 -7 -5 -3 -11 4 -8 0 -9 -15 -4 -14 4 -21 2 -21 -6 0 -7 3 -10 6 -7
3 4 19 2 35 -2 22 -7 29 -5 29 6 0 8 -4 14 -9 14 -5 0 -7 9 -4 20 5 20 23 28
23 10 0 -5 4 -10 10 -10 5 0 7 7 4 15 -4 10 0 15 12 14 11 0 14 -3 8 -5 -7 -3
-10 -14 -7 -25 3 -11 -2 -28 -12 -39 -16 -18 -16 -19 4 -17 15 1 20 6 16 17
-3 10 -1 10 9 -3 10 -13 15 -14 18 -6 3 9 7 7 11 -5 6 -15 3 -17 -13 -13 -11
3 -23 1 -26 -4 -3 -5 -10 -7 -15 -4 -5 4 -9 0 -9 -7 0 -10 -2 -10 -9 0 -9 15
-33 6 -73 -27 -10 -8 -18 -10 -18 -5 0 5 14 18 30 27 38 23 38 32 1 33 -24 1
-27 -2 -23 -19 4 -15 2 -18 -8 -12 -8 5 -11 4 -7 -1 3 -6 2 -16 -3 -24 -5 -9
-5 -19 2 -27 6 -8 8 -16 4 -20 -3 -3 -6 -1 -6 5 0 7 -8 12 -17 12 -15 0 -16
-2 -3 -10 13 -8 12 -10 -3 -10 -14 0 -17 -5 -13 -22 3 -13 3 -18 0 -11 -3 7
-12 9 -21 6 -11 -4 -14 -2 -9 5 4 7 1 18 -6 26 -11 11 -16 11 -26 0 -7 -7 -19
-11 -27 -8 -13 5 -14 2 -5 -21 12 -33 13 -58 1 -51 -5 3 -15 -2 -22 -11 -12
-15 -12 -16 1 -8 23 14 37 14 37 -1 0 -7 -4 -11 -9 -8 -4 3 -8 0 -8 -6 0 -7
-7 -9 -16 -6 -9 3 -12 2 -9 -5 4 -6 -2 -13 -14 -16 -23 -6 -28 -19 -9 -25 7
-3 5 -7 -6 -11 -9 -4 -15 -3 -11 2 3 5 0 11 -7 13 -7 3 -8 9 -3 19 5 8 10 21
10 29 0 8 5 14 12 13 15 -3 25 25 11 33 -6 4 -8 3 -5 -3 7 -11 -20 -28 -36
-24 -4 1 -3 -8 3 -18 7 -13 7 -22 0 -26 -5 -3 -10 -1 -10 5 0 6 -4 9 -10 5 -5
-3 -7 -12 -3 -20 3 -8 0 -15 -6 -15 -6 0 -11 7 -11 15 0 18 -12 19 -28 3 -7
-7 -12 -8 -12 -2 0 5 -4 3 -9 -4 -6 -10 -11 -9 -22 4 -9 12 -10 15 -1 10 7 -4
12 -2 12 4 0 6 4 9 9 6 5 -4 4 5 -2 19 -10 21 -13 22 -19 7 -5 -13 -7 -12 -7
7 l-1 24 -19 -21 c-24 -28 -34 -28 -26 1 6 18 5 20 -6 10 -10 -10 -17 -9 -33
5 -12 9 -18 13 -14 8 10 -12 -19 -39 -33 -30 -8 5 -8 9 1 14 8 5 3 7 -13 7
-14 -1 -23 -5 -21 -9 5 -8 -42 -3 -69 7 -10 4 -16 14 -13 21 7 17 -6 25 -24
14 -18 -11 -50 6 -50 25 0 17 -12 19 -26 5 -13 -13 -33 8 -39 41 l-4 24 18
-21 c17 -22 18 -22 30 -2 7 11 8 17 2 13 -6 -3 -11 1 -11 9 0 9 -5 16 -11 16
-5 0 -7 -5 -3 -12 4 -7 3 -8 -5 -4 -9 6 -9 11 0 22 6 8 7 14 2 14 -15 0 -33
-23 -33 -43 0 -12 -4 -16 -12 -11 -10 6 -10 4 0 -7 18 -20 15 -27 -13 -25 -15
0 -23 6 -21 13 3 7 0 16 -7 20 -11 7 -18 83 -7 80 3 -1 15 4 28 11 19 11 22
10 23 -5 0 -14 2 -15 6 -3 9 25 25 40 35 34 5 -3 2 -14 -8 -25 -9 -10 -12 -19
-7 -19 11 0 27 29 24 43 -1 5 3 6 9 2 13 -8 13 -35 0 -35 -5 0 -10 -5 -10 -11
0 -8 5 -8 15 1 20 16 19 35 -2 56 -13 13 -14 19 -5 22 7 2 10 7 8 11 -3 4 5 8
16 8 12 1 25 8 29 15 7 10 9 9 9 -4 0 -10 5 -18 11 -18 6 0 8 -9 4 -20 -4 -11
-2 -20 4 -20 6 0 11 7 11 15 0 8 7 15 16 15 8 0 12 -4 9 -10 -10 -16 1 -12 15
6 8 8 9 14 4 13 -5 -1 -20 -1 -33 0 -18 1 -22 5 -18 21 3 10 0 21 -7 24 -6 2
-3 5 7 5 9 1 17 -4 17 -11 0 -6 3 -8 7 -4 5 4 0 13 -10 21 -15 11 -15 14 -3
18 9 4 17 -1 21 -12 3 -12 16 -18 35 -19 24 0 27 2 17 12 -6 8 -19 11 -27 9
-8 -3 -5 2 8 11 12 10 20 21 18 25 -3 3 4 7 14 7 13 0 17 -7 16 -28 -1 -17 3
-28 11 -28 7 0 10 6 6 17 -4 10 -2 14 5 9 6 -3 14 -1 18 5 4 8 9 7 15 -2 7
-11 9 -10 9 4 0 9 8 17 18 17 15 0 15 2 2 11 -11 8 -9 9 10 3 14 -4 26 -10 28
-15z m3788 -298 c-6 -15 -5 -15 7 1 12 15 15 15 37 -4 14 -11 19 -17 13 -13
-15 7 -17 -4 -4 -24 7 -11 10 -9 16 8 3 12 11 19 16 16 5 -4 5 -13 0 -23 -8
-14 -4 -17 22 -16 39 0 89 -15 82 -26 -3 -4 2 -10 10 -14 23 -8 18 -21 -12
-34 -17 -7 -20 -10 -8 -8 17 2 20 -2 19 -31 -1 -22 3 -33 12 -33 8 0 14 8 14
18 0 14 2 15 10 2 5 -8 14 -16 20 -16 5 -1 18 -2 28 -4 11 -1 12 -3 4 -7 -6
-2 -9 -10 -6 -15 4 -6 2 -8 -4 -4 -6 3 -13 2 -17 -4 -4 -6 -12 -7 -18 -3 -7 3
-3 -3 7 -15 11 -12 16 -23 13 -23 -4 -1 -10 -2 -14 -3 -5 0 -18 -11 -30 -23
-13 -13 -30 -23 -38 -23 -9 0 -18 -6 -21 -14 -3 -8 -23 -17 -45 -21 -21 -4
-39 -11 -39 -16 0 -6 -13 -15 -30 -20 -16 -6 -27 -15 -24 -20 3 -5 2 -8 -3 -7
-15 4 -53 -22 -53 -37 0 -8 -4 -15 -10 -15 -5 0 -10 -7 -10 -15 0 -8 -5 -15
-11 -15 -5 0 -7 -4 -4 -10 8 -13 95 -13 95 -1 0 5 -12 11 -27 14 l-28 4 32 8
c18 4 31 11 28 15 -3 5 10 13 28 19 25 9 29 14 17 21 -13 8 -12 10 3 10 11 0
26 8 35 18 10 10 13 12 8 5 -13 -19 2 -16 31 7 16 12 41 20 64 20 27 0 39 5
42 18 3 12 5 11 6 -6 0 -13 6 -20 11 -17 13 8 13 -11 0 -36 -6 -10 -20 -19
-30 -19 -11 0 -20 -4 -20 -9 0 -5 -9 -7 -20 -4 -13 3 -20 0 -20 -8 0 -14 -68
-49 -95 -49 -8 0 -15 -7 -15 -15 0 -8 -6 -15 -12 -15 -14 0 -58 -59 -58 -77 0
-10 -4 -16 -92 -115 -65 -74 -91 -77 -107 -13 -6 25 -15 45 -19 45 -4 0 -18
-9 -32 -20 -27 -21 -104 -28 -115 -10 -3 6 -35 10 -71 10 l-64 0 0 31 c0 30
-30 65 -68 80 -17 6 -26 79 -10 79 7 0 7 4 0 13 -10 13 21 166 37 177 4 3 15
19 24 35 31 61 178 191 226 200 9 2 18 4 21 5 3 1 8 2 12 1 4 0 10 8 13 19 4
11 11 18 16 15 5 -4 9 -1 9 4 0 6 13 11 29 11 16 0 34 7 42 16 7 9 22 14 35
11 14 -2 25 2 28 9 3 8 10 14 16 14 6 0 8 -5 4 -12 -5 -7 5 -3 21 9 32 23 50
21 41 -6z m514 -506 c-17 -20 -5 -19 16 2 15 16 17 16 29 0 7 -9 16 -17 20
-17 4 0 2 7 -5 15 -18 21 -3 19 27 -5 14 -11 29 -18 33 -15 4 3 13 -2 20 -10
10 -12 9 -15 -4 -15 -10 0 -15 -4 -12 -9 6 -9 -28 -25 -77 -35 -45 -10 -114
-96 -77 -96 6 0 10 -4 10 -10 0 -5 -7 -10 -15 -10 -22 0 -18 -17 5 -23 30 -8
26 -44 -6 -50 -20 -4 -27 1 -35 21 -7 18 -6 27 3 33 7 4 9 11 5 15 -3 4 -12 2
-20 -4 -11 -10 -46 -10 -132 1 -16 2 -21 -5 -23 -35 -2 -20 1 -45 6 -55 5 -10
6 -27 2 -39 -13 -33 -39 -37 -71 -10 -60 51 -122 41 -193 -30 -37 -37 -39 -38
-53 -19 -24 32 -10 109 29 161 46 61 111 88 189 79 47 -6 62 -4 74 9 9 9 13
20 10 26 -3 5 5 15 19 21 21 10 23 15 15 32 -8 14 -8 18 1 12 7 -4 18 2 26 14
10 13 26 21 45 21 17 0 28 4 24 10 -3 6 1 7 9 4 9 -4 16 -1 16 6 0 8 12 11 34
8 19 -2 32 0 30 4 -3 4 5 8 17 8 18 0 19 -2 9 -15z m-2260 -1711 l0 -126 -27
5 c-15 3 -36 1 -46 -5 -24 -13 -82 7 -102 35 -8 12 -15 38 -15 58 0 68 62 113
123 90 26 -10 27 -10 27 29 0 33 3 40 20 40 19 0 20 -7 20 -126z m2407 105
c29 -11 43 -26 43 -46 0 -18 -37 -16 -44 2 -3 9 -18 15 -36 15 -28 0 -31 -3
-28 -27 2 -23 11 -30 43 -41 104 -33 97 -132 -10 -132 -46 0 -91 28 -82 53 6
20 26 19 44 -2 23 -27 69 -28 78 -1 9 28 1 36 -55 55 -28 9 -55 26 -61 37 -17
31 -2 68 34 83 39 17 39 17 74 4z m-3826 -9 c22 -12 27 -68 7 -88 -9 -9 -8
-16 5 -30 23 -25 21 -58 -3 -82 -16 -16 -33 -20 -85 -20 l-65 0 0 115 0 115
61 0 c33 0 69 -5 80 -10z m1915 -97 c22 -59 41 -111 42 -115 2 -4 -6 -8 -17
-8 -14 0 -25 9 -31 25 -8 22 -16 25 -55 25 -39 0 -47 -3 -55 -25 -6 -16 -17
-25 -31 -25 -16 0 -19 4 -14 18 4 9 23 61 42 115 30 83 38 97 58 97 19 0 28
-14 61 -107z m383 81 c42 -53 14 -103 -62 -111 l-47 -6 0 -43 c0 -37 -3 -44
-20 -44 -19 0 -20 7 -20 115 l0 115 64 0 c58 0 67 -3 85 -26z m1067 -7 c34
-39 40 -88 18 -134 -24 -48 -54 -63 -131 -63 l-63 0 0 116 0 116 76 -4 c68 -3
79 -6 100 -31z m2024 18 c0 -11 -12 -15 -45 -15 -45 0 -45 0 -45 -35 0 -34 1
-35 40 -35 29 0 40 -4 40 -15 0 -11 -11 -15 -40 -15 -39 0 -40 -1 -40 -35 0
-35 0 -35 45 -35 33 0 45 -4 45 -15 0 -12 -14 -15 -65 -15 l-65 0 0 115 0 115
65 0 c51 0 65 -3 65 -15z m533 -17 c31 -32 31 -33 10 -36 -12 -2 -31 6 -42 17
-31 31 -84 28 -110 -5 -45 -57 -12 -144 55 -144 36 0 74 28 74 55 0 11 -12 15
-46 15 -32 0 -44 4 -42 13 5 14 116 23 129 10 5 -5 4 -25 -2 -45 -13 -50 -54
-78 -114 -78 -40 0 -52 5 -81 34 -29 29 -34 41 -34 81 0 40 5 52 34 81 30 30
40 34 86 34 45 0 56 -4 83 -32z m-5625 -43 c12 -14 22 -37 22 -51 0 -23 -2
-24 -76 -24 l-76 0 14 -22 c19 -28 75 -37 84 -14 7 19 44 21 44 3 0 -8 -8 -21
-17 -29 -63 -55 -164 -9 -163 74 2 86 111 127 168 63z m181 20 c33 -17 41 -39
41 -117 0 -51 -2 -58 -20 -58 -18 0 -20 7 -20 60 0 71 -23 106 -62 91 -13 -4
-24 -14 -25 -22 -1 -8 -5 -40 -8 -71 -5 -48 -10 -58 -26 -58 -17 0 -19 8 -19
89 l0 90 43 4 c23 2 48 4 55 5 7 1 26 -5 41 -13z m419 -20 c12 -14 22 -37 22
-51 0 -23 -2 -24 -76 -24 l-76 0 14 -22 c19 -28 75 -37 84 -14 3 9 17 16 31
16 24 0 25 -1 11 -22 -53 -80 -179 -42 -178 54 2 86 111 127 168 63z m197 10
c22 -21 25 -33 25 -95 0 -63 -2 -70 -20 -70 -18 0 -20 7 -20 63 0 67 -10 87
-45 87 -35 0 -45 -20 -45 -87 0 -56 -2 -63 -20 -63 -19 0 -20 7 -20 91 l0 91
24 -4 c14 -3 31 -1 38 3 24 16 59 9 83 -16z m525 -10 c19 -19 24 -34 23 -66
-2 -48 -22 -74 -68 -89 -40 -13 -75 -1 -104 36 -74 94 63 204 149 119z m856
19 c57 -27 68 -100 21 -151 -28 -32 -101 -32 -134 -1 -32 30 -33 106 0 135 39
36 64 40 113 17z m477 5 l27 1 0 -88 0 -89 -67 -1 c-44 -1 -75 4 -90 13 -24
16 -39 71 -29 110 9 36 63 68 101 59 17 -3 42 -6 58 -5z m625 -25 c12 -14 22
-36 22 -50 0 -23 -2 -24 -70 -24 -51 0 -70 -4 -70 -13 0 -35 71 -52 88 -21 5
9 18 14 32 12 l23 -3 -24 -29 c-48 -55 -146 -30 -164 41 -24 95 98 161 163 87z
m451 25 c35 -12 51 -35 51 -73 0 -25 -2 -26 -70 -26 -38 0 -70 -3 -70 -6 0 -3
5 -14 10 -25 13 -23 62 -26 80 -4 12 14 50 21 50 9 0 -19 -25 -44 -54 -54 -41
-13 -98 6 -115 38 -26 50 -4 123 43 142 29 12 38 12 75 -1z m623 -16 c10 -9
18 -22 18 -30 0 -17 -36 -17 -43 1 -8 20 -43 26 -66 9 -24 -16 -29 -81 -9
-101 17 -17 65 -15 76 4 5 9 18 14 32 12 l23 -3 -24 -28 c-19 -21 -34 -28 -67
-29 -75 -2 -113 60 -87 142 14 45 107 60 147 23z m263 13 c54 -23 71 -77 40
-135 -17 -34 -33 -41 -86 -41 -29 0 -47 7 -64 25 -44 43 -27 132 29 155 30 12
42 12 81 -4z m208 -18 c22 -27 7 -37 -28 -18 -12 7 -31 10 -41 8 -32 -6 -21
-30 20 -44 68 -24 85 -54 47 -88 -38 -35 -131 -13 -131 31 0 18 37 16 44 -3 7
-19 61 -15 61 5 0 8 -19 21 -43 29 -28 9 -47 23 -55 39 -10 23 -8 28 17 50 35
30 80 26 109 -9z m460 1 c12 -16 17 -39 17 -90 0 -62 -2 -69 -20 -69 -18 0
-20 7 -20 63 0 34 -4 67 -8 73 -13 19 -39 23 -61 8 -18 -13 -21 -25 -21 -80 0
-57 -2 -64 -20 -64 -19 0 -20 7 -20 91 l0 91 24 -4 c14 -3 31 -1 38 4 20 13
71 0 91 -23z m555 -5 c12 -14 22 -36 22 -50 0 -23 -2 -24 -76 -24 l-76 0 14
-22 c19 -28 75 -37 84 -14 8 20 44 21 44 2 0 -24 -41 -46 -85 -46 -49 0 -80
25 -90 70 -21 95 98 157 163 84z m175 4 c23 -27 2 -46 -24 -22 -21 19 -64 15
-64 -5 0 -8 18 -20 39 -27 68 -24 85 -54 47 -88 -38 -35 -131 -13 -131 31 0
18 37 16 44 -3 7 -19 61 -15 61 5 0 8 -19 21 -43 29 -45 15 -67 41 -57 71 13
44 95 49 128 9z m406 -2 c35 -35 33 -101 -3 -133 -37 -32 -104 -32 -133 0 -30
32 -36 62 -23 103 22 65 108 81 159 30z m185 22 c30 -13 46 -59 46 -130 0 -41
-3 -48 -20 -48 -18 0 -20 7 -20 56 0 71 -12 94 -51 94 -36 0 -49 -27 -49 -101
0 -42 -3 -49 -20 -49 -19 0 -20 7 -20 90 l0 89 35 -1 c19 -1 38 2 42 5 9 10
29 8 57 -5z m-1822 -478 c20 -6 47 -23 59 -38 19 -24 21 -37 17 -107 -11 -210
-176 -380 -396 -407 -43 -5 -303 -8 -580 -6 l-502 3 -32 33 c-31 31 -33 36
-32 101 5 217 176 404 389 424 99 9 1042 6 1077 -3z"/>
<path d="M5610 2535 l0 -85 39 0 c59 0 86 27 86 85 0 58 -27 85 -86 85 l-39 0
0 -85z"/>
<path d="M6306 2073 c-139 -42 -255 -181 -276 -331 -10 -75 -4 -107 26 -127
22 -14 89 -15 592 -13 l567 3 55 26 c132 62 228 199 238 339 4 64 3 73 -18 95
l-23 25 -556 -1 c-467 0 -564 -3 -605 -16z"/>
<path d="M96 6454 c-24 -23 -24 -385 0 -408 23 -24 385 -24 408 0 24 23 24
385 0 408 -13 13 -46 16 -204 16 -158 0 -191 -3 -204 -16z"/>
<path d="M184 5176 c1 -8 5 -18 8 -22 4 -3 4 -12 1 -20 -3 -8 0 -14 6 -14 6 0
11 5 11 11 0 5 5 7 10 4 18 -11 10 -23 -18 -27 -25 -4 -28 -1 -24 19 3 13 -1
23 -7 23 -7 0 -10 -4 -7 -9 3 -5 -2 -12 -11 -15 -9 -4 -20 -1 -25 6 -6 10 -8
10 -8 -2 0 -12 -2 -12 -8 -2 -5 8 -16 10 -28 5 -18 -7 -18 -6 -1 11 9 9 17 23
17 29 -1 7 -6 5 -13 -4 -7 -9 -18 -14 -25 -11 -7 2 -19 -1 -26 -7 -14 -11 -26
-5 -26 13 0 6 4 5 9 -2 6 -10 10 -10 21 3 11 13 9 15 -13 15 l-25 0 0 -145 c0
-80 3 -143 8 -140 5 3 14 -4 20 -15 13 -24 52 -27 70 -5 10 12 10 15 -1 16 -8
0 -5 4 6 9 19 8 19 9 -3 9 -20 1 -22 -2 -16 -21 6 -20 5 -21 -9 -9 -9 7 -14
18 -10 24 4 6 1 7 -6 3 -7 -5 -10 -15 -7 -25 5 -12 2 -11 -9 3 -17 23 -17 24
16 29 13 2 24 9 24 15 0 6 4 14 9 19 5 4 6 3 3 -3 -4 -7 0 -14 8 -18 8 -3 15
0 15 7 0 8 3 8 8 2 4 -6 14 -10 22 -10 8 1 20 -3 27 -7 12 -10 28 6 19 20 -3
4 8 7 25 6 16 -1 27 2 24 7 -3 4 5 11 19 15 17 4 23 11 19 21 -5 12 -7 12 -14
1 -5 -7 -9 -9 -9 -4 0 5 -6 3 -13 -3 -8 -6 -17 -8 -21 -4 -4 4 -4 0 0 -10 3
-9 2 -17 -3 -17 -19 0 -9 35 14 53 13 10 20 23 17 29 -4 6 -2 8 4 4 12 -7 62
13 62 26 0 11 -27 10 -32 -1 -1 -5 -9 -3 -16 5 -11 12 -10 14 3 14 8 0 15 5
15 11 0 6 -7 9 -15 5 -21 -8 -19 21 3 33 15 9 15 10 -5 8 -12 0 -19 -5 -17 -9
3 -4 0 -8 -6 -8 -8 0 -10 9 -6 25 4 15 2 25 -4 25 -6 0 -8 -4 -5 -10 11 -17
-8 -11 -31 11 -18 16 -22 18 -20 5z"/>
<path d="M9585 5081 c-48 -22 -79 -54 -100 -103 -13 -33 -15 -226 -15 -1743
l0 -1705 99 0 c60 0 102 4 106 11 10 16 -4 24 -17 11 -17 -17 -28 -15 -22 3 9
23 55 19 61 -6 4 -15 12 -19 31 -17 36 4 39 26 5 31 -20 3 -16 4 15 6 40 1 42
0 32 -19 -9 -16 -8 -20 5 -20 8 0 14 3 14 8 -4 23 4 32 27 32 17 0 28 -6 31
-20 5 -20 43 -29 43 -10 0 6 -7 10 -16 10 -8 0 -12 5 -9 10 12 19 45 11 45
-10 0 -11 6 -20 14 -20 7 0 16 9 19 20 7 27 53 27 62 0 3 -11 12 -20 20 -20 8
0 17 9 20 20 8 26 35 26 35 0 0 -16 7 -20 30 -20 20 0 30 5 30 15 0 18 -17 20
-23 3 -2 -7 -8 -10 -12 -6 -12 12 5 28 31 28 21 0 29 -9 25 -32 0 -5 4 -8 9
-8 6 0 10 9 10 20 0 16 7 20 30 20 34 0 41 -20 8 -21 -17 -1 -14 -4 12 -11 30
-9 36 -7 49 11 17 27 41 27 41 0 0 -16 5 -20 27 -17 36 4 41 26 6 31 -20 3
-16 4 15 6 40 1 42 0 32 -19 -11 -20 -8 -20 815 -20 l825 0 0 1705 c0 1517 -2
1710 -15 1743 -21 49 -52 81 -100 103 -38 18 -93 19 -1175 19 -1082 0 -1137
-1 -1175 -19z m1015 -2416 c0 -51 -2 -55 -23 -55 -13 0 -28 5 -34 11 -8 8 -17
7 -32 -3 -17 -10 -25 -10 -41 -1 -12 8 -21 9 -25 3 -8 -13 -52 -13 -60 1 -10
16 3 23 18 11 8 -7 17 -9 20 -5 4 3 -3 11 -16 17 -27 14 -79 8 -74 -8 2 -6 11
-10 21 -8 9 2 16 -2 16 -8 0 -6 -12 -10 -27 -8 -25 3 -28 7 -28 38 0 31 3 35
28 38 17 2 27 -1 27 -9 0 -10 3 -10 12 -1 14 14 54 16 63 2 4 -6 13 -5 25 3
16 9 24 9 39 0 22 -14 71 3 71 25 0 6 5 12 10 12 6 0 10 -25 10 -55z m115
-927 c12 -16 19 -19 22 -10 3 6 18 12 34 12 30 0 30 0 27 -52 -3 -49 -5 -53
-30 -56 -17 -2 -28 2 -28 8 0 7 7 10 15 7 8 -4 17 -2 20 3 4 6 -3 10 -13 10
-11 0 -23 8 -27 18 -6 16 -7 16 -16 0 -7 -12 -22 -18 -45 -18 -34 0 -35 1 -32
33 2 24 8 33 26 35 19 3 22 -1 22 -28 0 -18 4 -29 10 -25 6 3 10 17 10 30 0
31 -32 50 -60 35 -40 -21 -17 -112 25 -96 8 3 15 1 15 -4 0 -14 -54 -12 -68 2
-17 17 -15 78 5 100 23 25 68 23 88 -4z"/>
</g>
</svg>
