<?xml version="1.0" standalone="no"?>
<!DOCTYPE svg PUBLIC "-//W3C//DTD SVG 20010904//EN"
 "http://www.w3.org/TR/2001/REC-SVG-20010904/DTD/svg10.dtd">
<svg version="1.0" xmlns="http://www.w3.org/2000/svg"
 width="1920.000000pt" height="1920.000000pt" viewBox="0 0 1920.000000 1920.000000"
 preserveAspectRatio="xMidYMid meet">
<metadata>
Created by potrace 1.16, written by Peter Selinger 2001-2019
</metadata>
<g transform="translate(0.000000,1920.000000) scale(0.100000,-0.100000)"
fill="#000000" stroke="none">
<path d="M8817 15218 c-14 -11 -159 -243 -180 -288 -4 -8 -40 -68 -80 -133
l-72 -119 -115 -5 c-135 -5 -262 -24 -267 -38 -2 -6 12 -27 30 -47 l33 -36 79
14 c96 18 303 23 307 9 2 -6 -36 -11 -97 -12 -88 -2 -136 -7 -277 -30 -34 -5
-40 -2 -82 42 -38 39 -145 164 -206 239 -8 10 -21 24 -28 32 -17 17 -121 145
-130 159 -18 27 -41 36 -62 25 -12 -6 -24 -9 -27 -7 -7 8 53 37 76 37 11 0 24
-6 28 -14 4 -8 22 -29 38 -48 17 -18 63 -73 103 -121 40 -48 75 -87 78 -87 6
0 -181 225 -250 302 -30 32 -61 58 -72 58 -11 0 -39 -11 -64 -25 -25 -14 -112
-59 -193 -101 -96 -49 -152 -84 -158 -98 -8 -17 -1 -57 29 -171 22 -83 58
-225 82 -318 l42 -167 -63 -68 c-35 -37 -88 -100 -118 -140 -40 -53 -60 -72
-77 -72 -12 0 -159 11 -325 25 -247 21 -305 23 -315 13 -11 -12 -28 -63 -108
-327 -38 -126 -37 -140 14 -166 16 -8 34 -24 40 -34 5 -11 24 -28 42 -39 18
-10 126 -74 241 -142 l207 -123 0 -86 c1 -47 7 -122 15 -166 8 -44 15 -85 15
-92 0 -6 -105 -99 -232 -206 -295 -247 -281 -234 -275 -266 7 -29 181 -356
205 -383 8 -10 22 -18 31 -18 9 0 25 -15 35 -34 10 -19 25 -37 32 -40 11 -4
302 64 386 90 12 3 18 18 20 47 3 41 4 42 58 59 153 49 436 141 443 145 4 3
-13 27 -38 55 -25 28 -44 52 -43 53 2 2 78 28 171 58 169 56 195 57 141 6 -14
-13 -34 -38 -45 -56 -18 -28 -23 -31 -45 -23 -38 15 -40 13 -53 -31 -7 -23
-15 -47 -18 -55 -3 -8 7 -16 29 -22 29 -7 33 -12 30 -38 -1 -16 2 -51 7 -77 8
-46 8 -48 -20 -63 -16 -8 -29 -16 -29 -17 0 -10 41 -87 49 -91 5 -4 21 -1 35
5 24 11 30 8 75 -34 28 -26 54 -47 60 -47 5 0 7 -9 4 -20 -3 -13 -14 -20 -29
-20 -12 0 -25 -4 -28 -8 -5 -9 49 -173 92 -279 l21 -52 -72 -93 c-40 -51 -91
-118 -115 -148 -184 -238 -422 -560 -422 -572 0 -8 19 -37 43 -64 23 -27 52
-60 63 -74 257 -300 327 -379 341 -384 19 -8 128 45 621 299 l283 146 82 -49
c126 -76 194 -111 292 -151 l90 -38 7 -49 c4 -27 14 -101 22 -164 74 -559 102
-738 117 -757 14 -15 55 -21 244 -33 88 -5 218 -14 289 -20 144 -11 163 -6
184 47 6 15 54 161 106 323 52 162 114 352 136 423 l41 127 33 0 c55 0 329 86
460 144 33 15 65 25 71 23 6 -3 180 -133 387 -291 249 -188 386 -286 401 -286
24 0 90 42 116 74 8 10 101 92 207 182 106 91 196 174 200 186 4 14 -7 48 -38
107 -128 253 -326 635 -359 698 -22 39 -39 76 -39 81 0 5 16 36 36 68 51 86
158 300 184 371 22 60 22 60 68 66 26 3 108 15 182 27 74 11 164 25 200 30
254 34 498 72 517 80 28 12 33 54 58 470 3 52 8 120 11 151 7 70 -8 88 -99
114 -34 10 -114 35 -177 56 -63 20 -216 69 -340 109 -124 39 -247 80 -274 89
l-50 18 -13 69 c-18 88 -96 322 -134 398 -17 33 -28 65 -25 71 2 6 135 185
295 398 160 213 291 393 291 401 0 24 -128 178 -403 483 -16 17 -38 34 -49 37
-15 3 -86 -29 -227 -102 -113 -58 -232 -119 -264 -136 -53 -27 -58 -32 -51
-55 23 -89 23 -90 -5 -110 -14 -10 -57 -35 -96 -56 -111 -61 -545 -326 -545
-333 0 -4 19 -18 43 -31 77 -44 103 -70 116 -112 14 -47 14 -48 -82 -100 -32
-17 -56 -33 -54 -35 5 -5 99 42 135 68 22 15 23 20 14 62 -9 43 -8 48 12 58
11 6 37 20 56 31 129 72 281 147 298 147 35 0 392 -403 392 -442 0 -10 -25
-52 -56 -93 -62 -82 -85 -103 -32 -29 69 97 68 94 52 125 -7 15 -18 30 -23 34
-6 3 -50 -47 -98 -112 -141 -187 -135 -177 -120 -204 28 -54 28 -54 64 -13
l33 39 -37 -57 c-21 -32 -42 -57 -46 -58 -4 0 -14 15 -22 34 -8 19 -19 37 -24
41 -10 6 -161 -188 -161 -206 0 -5 7 -9 15 -9 9 0 15 -6 14 -12 -4 -34 2 -50
16 -44 9 3 15 0 15 -10 0 -9 6 -28 14 -42 35 -68 54 -128 37 -118 -6 4 -11 3
-11 -3 0 -5 9 -12 19 -16 22 -7 35 -47 25 -77 -4 -14 -2 -18 5 -14 6 4 11 1
11 -7 0 -8 7 -20 15 -27 12 -10 12 -5 -1 41 -24 81 -64 189 -85 231 l-19 36
67 91 67 92 17 -33 c55 -108 134 -384 141 -490 1 -27 7 -38 18 -38 9 0 62 -16
119 -35 57 -20 138 -44 179 -55 82 -22 112 -41 112 -74 0 -14 12 -26 33 -36
31 -15 32 -16 30 -75 -7 -182 -25 -411 -32 -418 -13 -13 -493 -86 -556 -86
l-50 1 37 10 c35 9 59 40 44 56 -8 8 -184 -16 -207 -28 -10 -6 -21 -20 -25
-32 -12 -39 -65 -149 -112 -232 -24 -43 -40 -81 -35 -85 5 -3 15 -20 22 -38 7
-17 20 -34 28 -37 8 -4 13 -13 9 -21 -3 -8 -1 -15 4 -15 6 0 10 -4 10 -10 0
-5 12 -22 26 -37 14 -16 56 -86 93 -158 37 -71 93 -178 124 -236 32 -58 57
-114 57 -125 0 -12 -36 -51 -97 -104 -53 -47 -130 -115 -170 -152 -41 -39 -82
-68 -94 -68 -20 0 -371 257 -549 401 -47 38 -89 69 -95 69 -5 0 -23 -7 -40
-16 -45 -23 -244 -90 -293 -99 -49 -8 -55 -16 -88 -123 l-22 -74 36 7 c20 4
40 11 43 17 4 6 8 5 11 -3 2 -7 -13 -70 -34 -139 -22 -69 -55 -176 -74 -239
-53 -172 -52 -171 -127 -171 -74 0 -372 19 -405 26 -15 3 -24 14 -29 34 -3 19
-12 30 -22 30 -31 0 -59 29 -64 67 -3 21 -17 115 -31 208 -14 94 -26 193 -26
220 0 28 -2 64 -4 80 -2 17 -4 40 -5 53 -1 15 -16 32 -46 51 -24 15 -42 31
-39 34 4 3 -7 9 -22 12 -37 8 -94 36 -94 46 0 5 -6 6 -12 4 -7 -3 -24 5 -38
18 -14 12 -42 32 -62 44 l-36 21 -64 -30 c-105 -51 -105 -51 -58 -83 23 -16
37 -32 33 -36 -27 -25 -431 -229 -454 -229 -13 0 -37 13 -54 29 -16 16 -41 40
-55 53 -25 23 -70 74 -224 251 -42 49 -76 95 -76 102 0 14 147 218 252 349
l56 71 -36 64 c-19 35 -46 89 -58 120 -19 45 -28 57 -51 62 l-28 6 28 13 c30
15 33 27 13 55 -13 18 -10 24 30 67 24 26 44 52 44 59 0 8 12 10 40 5 l39 -6
16 52 c8 28 14 52 12 53 -1 0 -14 6 -29 13 -23 10 -28 18 -28 49 0 21 -4 55
-9 76 -8 35 -7 38 20 53 16 8 29 17 29 21 0 9 -50 93 -56 93 -2 0 -15 -7 -27
-15 -22 -14 -25 -13 -58 21 -19 20 -46 42 -62 50 -23 12 -26 18 -17 34 18 34
11 47 -37 63 -44 14 -49 14 -60 -1 -7 -9 -13 -22 -13 -29 0 -9 -15 -13 -47
-13 -73 0 -123 -11 -123 -26 0 -8 -4 -14 -10 -14 -13 0 -13 13 1 27 17 17 -6
54 -29 46 -42 -16 -82 -46 -75 -56 17 -29 -33 22 -72 73 -259 336 -239 803 47
1115 141 155 368 263 587 281 145 12 340 -34 477 -112 41 -23 72 -38 69 -33
-6 9 -135 94 -144 94 -13 0 -77 29 -91 41 -20 16 -137 54 -167 54 -12 0 -23 4
-23 9 0 13 -260 14 -317 0 -218 -51 -388 -155 -507 -309 -142 -183 -196 -388
-173 -647 6 -64 12 -90 34 -143 3 -8 7 -25 9 -37 3 -28 33 -83 34 -63 0 13 1
13 10 0 13 -20 13 -33 -1 -24 -21 13 53 -112 105 -176 62 -78 75 -104 46 -95
-18 6 -294 -78 -313 -95 -4 -3 10 -26 30 -51 50 -57 96 -120 92 -123 -6 -3
-376 -122 -429 -137 -58 -16 -60 -18 -62 -66 l-1 -41 -71 -16 c-39 -9 -120
-29 -181 -46 -60 -16 -117 -29 -125 -29 -25 0 -116 141 -201 313 -27 56 -36
83 -30 95 5 9 55 55 111 101 57 47 137 114 179 150 42 36 109 92 149 125 63
51 72 63 67 85 -16 78 -35 234 -35 296 0 70 -1 72 -30 84 -17 7 -36 20 -43 29
-13 18 -57 49 -99 70 -16 8 -28 18 -28 22 0 4 -11 10 -25 13 -25 6 -68 32
-207 122 -37 24 -73 44 -81 44 -7 0 -23 11 -35 25 l-21 24 50 163 c28 90 56
181 61 203 18 70 20 71 175 56 76 -7 221 -19 322 -27 102 -8 187 -17 190 -20
13 -13 -29 -24 -74 -20 -141 15 -458 39 -514 40 -64 1 -65 1 -72 -29 -4 -16
-22 -77 -39 -135 -62 -203 -66 -220 -49 -220 7 0 20 -7 30 -16 9 -8 26 -16 37
-17 11 0 20 -5 19 -9 -1 -4 9 -14 23 -21 23 -11 28 -9 70 33 25 25 42 41 38
36 -12 -16 -9 -24 9 -28 14 -3 12 -8 -12 -31 -34 -31 -57 -36 -48 -9 5 14 4
15 -8 4 -12 -11 -11 -15 5 -28 17 -12 23 -12 42 1 17 11 24 12 28 2 3 -8 12
-3 25 13 14 16 19 19 15 8 -3 -10 -2 -18 4 -18 5 0 12 9 15 21 3 12 10 18 15
15 6 -3 12 -3 14 1 2 5 16 19 33 33 18 15 24 18 15 6 -14 -18 -13 -18 9 -11
23 7 23 7 4 -12 -41 -38 -150 -95 -167 -87 -6 3 -3 -1 8 -10 17 -14 22 -14 50
0 l31 15 -23 -19 c-21 -16 -22 -20 -8 -31 13 -11 16 -11 16 -1 0 7 14 26 32
42 33 29 44 35 33 18 -3 -5 -2 -10 2 -10 12 0 43 38 43 52 0 6 3 8 7 5 6 -7
32 22 33 37 0 4 -8 5 -17 2 -16 -5 -16 -5 0 8 10 8 31 56 47 108 38 126 44
139 73 167 24 22 32 23 99 18 40 -3 114 -9 163 -12 l90 -6 40 57 c22 32 77 96
123 143 l83 86 -15 70 c-8 39 -25 110 -39 158 -13 48 -22 99 -19 113 6 34 42
58 210 145 l143 74 32 -35 c18 -19 48 -55 69 -80 122 -151 141 -170 157 -166
71 20 155 29 266 30 l130 0 44 75 c74 128 129 207 154 220 18 10 31 9 67 -2
25 -9 98 -32 163 -52 122 -38 121 -38 117 -96 -1 -21 4 -28 26 -33 l27 -7 -7
-102 c-3 -56 -9 -137 -13 -179 -6 -74 -5 -78 15 -78 11 0 27 -6 34 -13 7 -7
41 -37 76 -66 34 -30 60 -56 57 -59 -7 -8 45 -32 69 -32 11 0 43 7 71 15 27 9
59 18 70 20 11 3 49 12 85 21 85 21 132 26 146 17 12 -9 52 -81 149 -267 l67
-130 -48 -43 c-27 -24 -81 -69 -121 -101 -39 -31 -70 -58 -68 -60 6 -6 50 20
59 36 7 12 10 12 17 1 7 -11 12 -11 26 -2 10 6 17 16 15 23 -1 6 2 9 7 6 11
-7 33 18 24 28 -4 4 -1 5 7 1 8 -3 26 5 40 18 14 12 111 93 217 180 105 87
197 164 202 171 8 10 -8 51 -65 162 -42 82 -82 155 -89 162 -9 11 -21 11 -51
3 -22 -5 -100 -26 -174 -45 -74 -19 -187 -49 -252 -65 -160 -43 -167 -42 -232
22 -29 28 -79 72 -110 97 -32 25 -69 56 -82 70 -13 14 -40 41 -58 60 l-34 35
18 165 c14 137 34 375 35 428 0 13 -83 49 -135 59 -14 2 -34 8 -45 13 -11 5
-53 18 -94 30 l-74 22 -24 -29 -25 -28 19 35 c11 19 27 36 37 38 21 5 370 -98
374 -110 2 -4 12 -8 22 -8 34 0 42 -25 36 -107 -10 -138 -26 -316 -37 -407 -6
-48 -8 -107 -5 -131 6 -38 13 -47 64 -81 31 -22 91 -72 133 -112 l77 -73 43
11 c24 6 158 40 298 76 139 35 262 64 272 64 29 0 32 18 9 55 -17 28 -28 35
-53 35 -18 0 -170 -34 -339 -76 l-307 -77 -58 55 c-32 31 -75 71 -96 89 -33
28 -38 37 -33 63 3 17 14 137 26 266 11 129 22 254 24 277 4 49 -12 78 -50 87
-16 4 -24 12 -21 20 9 22 -17 48 -59 62 -189 58 -379 114 -388 114 -7 0 -20
-6 -29 -12z m-1341 -287 c-3 -5 -36 -24 -72 -42 -72 -37 -72 -37 -46 -129 6
-19 18 -64 27 -100 49 -198 67 -268 75 -295 5 -16 16 -58 26 -93 l17 -62 -58
-63 c-93 -98 -89 -95 -77 -72 6 11 31 41 56 67 l46 47 -81 323 c-50 198 -78
328 -72 336 8 13 140 90 156 91 5 1 6 -3 3 -8z m744 -2591 c117 -59 128 -243
21 -319 -79 -57 -184 -48 -251 19 -125 125 -25 342 148 325 23 -3 60 -14 82
-25z m3404 -562 c-28 -90 -151 -314 -213 -388 l-28 -34 -21 40 -21 41 33 54
c33 55 96 184 123 252 15 36 22 41 83 50 51 8 52 8 44 -15z m-2199 -892 c20
-5 25 -15 30 -54 3 -26 8 -57 11 -69 5 -28 2 -28 -67 -4 -95 32 -350 165 -337
175 1 2 34 19 71 38 l68 36 100 -58 c56 -32 111 -61 124 -64z m1332 -8 c18
-13 33 -26 33 -29 0 -8 -138 -71 -230 -104 -86 -30 -240 -69 -247 -61 -3 3 1
24 9 47 14 41 16 43 74 55 67 14 247 74 290 98 37 19 32 20 71 -6z"/>
<path d="M8045 12267 c-39 -39 -54 -102 -35 -147 14 -33 80 -70 124 -70 45 0
82 26 100 70 31 78 13 130 -58 164 -54 26 -93 21 -131 -17z"/>
<path d="M10243 14252 c10 -10 17 -23 17 -29 0 -6 4 -13 9 -15 12 -4 101 -181
101 -201 0 -9 4 -18 9 -21 13 -8 62 -93 66 -115 3 -19 -50 -68 -220 -205 -33
-26 -76 -62 -95 -80 -19 -17 -55 -47 -80 -66 -25 -19 -51 -41 -59 -48 -8 -7
-24 -20 -37 -29 -21 -13 -24 -23 -24 -72 0 -31 4 -61 9 -66 15 -17 23 -135 8
-134 -6 0 -73 19 -147 42 -119 37 -135 45 -140 67 -7 29 -40 41 -40 15 0 -11
-5 -15 -14 -12 -8 3 -17 1 -19 -6 -2 -7 -4 9 -4 35 -1 25 -4 56 -8 67 -5 17
-2 21 14 21 26 0 34 15 27 45 l-6 24 -45 -31 c-25 -18 -47 -39 -50 -48 -3 -9
1 -38 8 -66 16 -60 6 -114 -21 -114 -9 1 -35 7 -57 15 -24 9 -41 11 -43 5 -5
-15 -22 -12 -19 3 1 6 -17 21 -40 31 -33 16 -42 26 -46 50 -20 136 -112 324
-210 429 -47 49 -50 51 -13 9 96 -112 167 -255 202 -404 15 -67 20 -77 43 -83
34 -9 51 -24 51 -45 0 -14 16 -23 62 -37 l63 -18 -48 -29 c-27 -15 -81 -61
-122 -101 -40 -40 -77 -70 -81 -65 -14 13 -145 82 -149 78 -15 -17 -143 -244
-140 -249 3 -3 37 -26 76 -49 59 -35 70 -46 66 -64 -3 -11 -15 -55 -27 -96
-14 -52 -22 -113 -25 -195 l-3 -120 -80 -20 c-44 -11 -83 -23 -87 -27 -8 -8
53 -258 66 -272 5 -6 29 -5 61 3 29 7 68 17 85 21 32 8 34 6 52 -35 30 -68 99
-164 171 -238 l67 -68 -45 -76 c-36 -62 -42 -78 -30 -88 7 -7 63 -41 125 -77
80 -47 114 -63 122 -55 6 6 11 14 11 18 0 4 16 35 36 69 28 46 41 59 53 54 96
-41 212 -63 332 -64 l87 0 16 -72 c9 -40 20 -78 24 -85 5 -8 43 -2 141 23 73
19 135 34 137 34 11 0 -10 106 -31 161 -4 10 3 20 22 30 96 48 185 111 250
175 l74 74 77 -45 c42 -24 80 -41 83 -37 4 4 37 60 75 126 60 104 66 120 52
130 -9 6 -44 28 -78 49 -45 28 -60 42 -56 54 27 70 48 184 53 290 l6 121 46
12 c84 22 126 37 124 46 -8 47 -67 261 -72 267 -4 4 -41 -2 -82 -13 -95 -25
-97 -25 -111 8 -17 39 -83 145 -110 179 -12 15 -48 53 -78 84 l-56 56 43 69
c23 38 43 74 43 81 0 8 -195 131 -241 151 -4 2 -26 -31 -50 -73 -30 -51 -49
-74 -59 -71 -141 38 -189 48 -267 53 l-92 6 -6 50 c-5 36 -3 52 6 62 8 6 93
77 189 155 243 200 320 269 320 289 0 17 -180 372 -202 398 -6 7 -15 13 -21
13 -5 0 -3 -8 6 -18z m-178 -1357 c237 -49 390 -203 441 -443 15 -71 16 -94 6
-152 -38 -224 -165 -382 -360 -449 -136 -46 -278 -38 -407 24 -125 60 -214
157 -272 296 -23 57 -26 78 -27 189 -1 132 1 143 58 259 63 130 209 241 356
270 30 6 64 13 75 15 38 7 56 6 130 -9z"/>
<path d="M9884 12715 c-67 -16 -156 -74 -195 -127 -59 -81 -73 -123 -73 -228
0 -83 4 -102 27 -151 32 -67 118 -151 184 -182 40 -18 67 -22 153 -22 98 0
109 2 159 30 73 40 139 108 169 174 31 67 41 179 22 248 -18 65 -69 143 -121
185 -57 46 -81 58 -148 74 -67 16 -109 16 -177 -1z"/>
<path d="M8337 13873 c-4 -3 -7 -30 -7 -60 l0 -53 -39 -6 c-21 -3 -79 -26
-127 -50 l-89 -44 -35 35 c-20 19 -40 35 -45 35 -13 0 -125 -112 -125 -124 0
-6 16 -27 36 -47 l35 -36 -35 -69 c-19 -38 -42 -95 -51 -126 l-16 -57 -57 -3
-57 -3 0 -95 0 -95 57 -3 c54 -3 58 -5 64 -30 10 -47 37 -115 67 -171 l28 -54
-35 -36 c-20 -20 -36 -41 -36 -47 0 -12 112 -124 125 -124 5 0 25 16 45 35
l36 35 60 -32 c65 -36 148 -68 176 -68 14 0 18 -11 20 -57 l3 -58 93 -3 92 -3
0 59 0 60 44 6 c24 4 83 27 132 51 l89 45 35 -35 c20 -19 40 -35 45 -35 13 0
125 112 125 124 0 6 -16 27 -37 48 l-36 37 36 69 c20 38 43 94 50 123 l14 54
59 5 59 5 0 95 0 95 -61 3 -61 3 -6 41 c-3 23 -24 80 -47 126 l-42 84 36 37
c20 20 36 40 36 44 0 9 -75 87 -85 87 -4 0 -2 -6 4 -13 11 -14 5 -27 -11 -27
-5 0 -6 5 -2 11 3 6 0 15 -7 20 -10 6 -11 9 -1 9 19 0 14 18 -9 31 -18 9 -26
6 -60 -27 -37 -36 -41 -37 -62 -24 -55 35 -136 71 -184 81 l-53 12 0 59 0 58
-88 0 c-49 0 -92 -3 -95 -7z m236 -391 c66 -33 134 -102 165 -170 23 -48 27
-71 27 -142 0 -103 -29 -174 -98 -244 -63 -63 -124 -88 -222 -94 -108 -5 -179
21 -250 92 -79 79 -100 131 -100 246 0 81 4 103 25 145 34 71 114 147 180 173
76 30 204 27 273 -6z"/>
<path d="M8370 13369 c-47 -14 -93 -51 -121 -96 -31 -50 -33 -153 -4 -203 30
-51 97 -98 151 -106 167 -25 293 153 215 304 -23 45 -30 49 -49 30 -9 -9 -12
-9 -12 0 0 7 5 12 10 12 23 0 7 21 -30 40 -49 25 -114 33 -160 19z"/>
<path d="M10682 13350 c6 -14 36 -41 66 -60 67 -43 197 -178 245 -253 169
-264 235 -557 192 -852 -34 -235 -110 -404 -270 -603 -108 -134 -257 -250
-426 -330 -84 -40 -242 -92 -280 -92 -11 0 -19 -4 -19 -10 0 -13 4 -13 69 6
152 45 266 93 371 156 55 34 211 161 256 209 34 38 126 162 159 217 6 10 13
19 16 22 12 11 88 191 105 250 56 191 59 468 8 642 -8 26 -14 53 -14 62 0 23
-89 214 -137 293 -52 85 -170 215 -257 281 -34 26 -69 56 -78 67 -17 20 -17
19 -6 -5z"/>
<path d="M7287 13098 c1 -62 7 -136 13 -165 l11 -53 30 16 c36 18 44 36 31 61
-6 10 -11 52 -13 93 -3 123 -18 160 -63 160 -9 0 -11 -29 -9 -112z"/>
<path d="M12156 12268 c-4 -51 -9 -131 -12 -177 -8 -131 -30 -150 -184 -166
-36 -4 -81 -10 -100 -15 -19 -5 -67 -14 -107 -20 -56 -9 -72 -15 -76 -31 -6
-23 -2 -23 123 -4 52 9 153 24 224 35 71 11 130 21 132 22 4 5 27 321 28 397
0 25 -5 46 -11 48 -7 3 -13 -29 -17 -89z"/>
<path d="M8820 10918 c-63 -33 -152 -79 -197 -103 l-81 -43 26 -26 27 -25 115
58 c239 120 310 161 280 161 -7 0 -23 9 -35 20 -20 19 -21 19 -135 -42z"/>
<path d="M11412 10727 l-174 -152 29 -22 c15 -13 34 -23 41 -23 8 0 41 26 75
58 34 32 98 89 142 126 44 37 83 73 87 80 4 6 -1 28 -10 49 l-17 37 -173 -153z"/>
<path d="M10141 10442 c-45 -140 -71 -205 -90 -225 l-26 -29 -130 6 c-71 3
-155 8 -185 10 -46 4 -52 2 -37 -8 10 -8 68 -16 149 -20 73 -3 167 -9 209 -12
l76 -6 20 63 c12 35 40 125 63 199 23 74 48 152 56 173 18 48 19 47 -13 47
-27 0 -29 -4 -92 -198z"/>
<path d="M4620 8751 c-308 -102 -495 -462 -370 -714 57 -116 136 -179 270
-213 74 -19 140 -14 240 17 63 19 161 70 209 108 l24 19 -32 41 c-18 22 -37
41 -43 41 -5 0 -36 -16 -69 -35 -85 -50 -188 -79 -247 -70 -146 22 -259 143
-261 282 -1 51 28 148 62 206 35 60 125 140 195 173 45 23 74 29 142 32 77 3
92 1 143 -23 31 -15 67 -38 80 -51 31 -33 45 -30 101 19 l49 43 -59 47 c-91
72 -163 97 -282 96 -65 0 -115 -6 -152 -18z"/>
<path d="M5529 8723 c-95 -177 -114 -211 -129 -238 -9 -16 -38 -70 -64 -120
-26 -49 -59 -110 -73 -135 -14 -25 -44 -81 -67 -125 -24 -44 -66 -123 -95
-176 -28 -54 -51 -100 -51 -103 0 -3 30 -6 68 -6 l67 0 43 83 c23 45 62 118
86 162 l43 80 121 3 120 3 16 -73 c8 -40 23 -113 34 -163 l18 -90 67 -3 67 -3
-6 33 c-2 18 -11 67 -19 108 -8 41 -24 127 -35 190 -11 63 -27 143 -35 177 -8
34 -15 72 -15 84 0 11 -7 51 -15 88 -8 36 -23 111 -33 166 l-19 100 -34 3
c-32 3 -36 0 -60 -45z"/>
<path d="M6215 8759 c-96 -52 -146 -113 -164 -198 -23 -107 25 -184 157 -249
43 -21 89 -53 112 -79 34 -37 40 -49 40 -88 0 -78 -43 -141 -125 -184 -49 -26
-85 -27 -133 -2 -46 24 -71 65 -79 131 -3 27 -6 50 -7 50 -12 0 -110 -40 -118
-48 -18 -18 6 -125 39 -174 17 -24 50 -54 83 -72 193 -109 470 78 470 318 0
107 -63 191 -188 253 -40 20 -84 47 -99 60 -22 21 -25 30 -20 70 6 60 43 93
102 93 46 0 68 -17 79 -62 8 -33 7 -33 71 -9 45 17 50 22 53 53 4 41 -28 92
-77 125 -28 19 -47 23 -105 23 -39 0 -80 -6 -91 -11z"/>
<path d="M6860 8744 c-98 -56 -142 -123 -143 -218 -1 -51 4 -72 27 -109 25
-44 26 -47 7 -47 -29 0 -133 -101 -166 -162 -26 -47 -29 -63 -30 -143 0 -97 7
-117 64 -178 45 -50 98 -71 176 -71 59 0 80 5 137 32 60 30 168 121 168 142 0
5 15 13 33 19 34 12 86 59 106 98 6 12 11 44 11 72 0 39 -6 56 -26 80 -24 29
-26 30 -43 13 -39 -38 -61 -81 -59 -112 2 -22 -3 -36 -15 -44 -15 -9 -25 -3
-70 45 -60 64 -96 77 -154 59 -47 -15 -79 -44 -104 -92 -21 -42 -24 -70 -9
-99 13 -22 23 -19 93 35 l46 35 30 -35 c17 -19 31 -37 31 -41 0 -19 -119 -83
-155 -83 -60 0 -124 57 -132 117 -14 103 57 195 181 237 27 9 66 16 87 16 36
0 37 1 49 50 17 70 11 80 -48 80 -65 0 -102 36 -102 99 0 61 41 101 103 101
48 0 62 -10 72 -53 9 -35 21 -42 48 -29 12 6 36 15 52 20 28 8 30 12 27 51 -3
48 -32 93 -78 122 -49 30 -155 26 -214 -7z"/>
<path d="M7785 8746 c-80 -31 -106 -45 -175 -99 -123 -96 -196 -220 -221 -378
-19 -118 31 -270 115 -347 49 -45 134 -87 207 -103 114 -25 290 26 419 120 19
14 37 27 39 28 3 2 -13 21 -34 43 -44 45 -52 45 -118 0 -46 -30 -163 -70 -207
-70 -15 0 -57 9 -92 20 -115 35 -199 147 -199 266 0 133 71 262 188 340 80 53
143 74 228 74 77 0 143 -24 201 -73 18 -15 38 -27 45 -27 8 1 34 19 59 40 l44
39 -34 36 c-36 37 -51 47 -130 87 -37 18 -65 23 -160 25 -101 2 -122 0 -175
-21z"/>
<path d="M8714 8738 c-9 -17 -26 -48 -37 -67 -11 -20 -35 -64 -53 -98 -19 -35
-49 -91 -68 -125 -51 -97 -95 -177 -131 -243 -57 -105 -96 -177 -152 -282
l-54 -103 69 0 70 0 88 165 89 165 120 0 120 0 18 -77 c9 -43 17 -86 17 -96 0
-10 7 -49 16 -88 l16 -69 64 0 c63 0 64 0 64 28 0 15 -6 59 -14 97 -19 90 -70
356 -101 525 -8 47 -24 131 -35 187 -11 56 -20 104 -20 107 0 3 -16 6 -35 6
-29 0 -37 -5 -51 -32z"/>
<path d="M9246 8758 c-2 -7 -13 -67 -25 -133 -12 -66 -28 -157 -36 -202 -20
-109 -41 -227 -60 -343 -9 -52 -23 -128 -31 -168 -8 -40 -14 -77 -14 -82 0 -6
29 -10 65 -10 36 0 65 3 65 8 0 4 6 39 14 77 7 39 19 103 26 143 l12 72 51 0
c59 0 47 17 135 -185 l49 -110 76 -3 c43 -2 77 -1 77 1 0 9 -34 86 -86 194
-30 62 -54 117 -54 121 0 5 17 18 38 30 46 26 133 115 157 163 23 44 45 125
45 167 0 54 -28 135 -60 174 -17 20 -56 49 -88 65 -53 26 -67 28 -204 31 -117
3 -149 1 -152 -10z m265 -133 c83 -30 118 -100 97 -194 -10 -44 -22 -64 -63
-105 -57 -57 -107 -76 -201 -76 l-56 0 7 53 c4 28 15 95 25 147 10 52 21 116
25 143 l6 47 58 0 c32 0 78 -7 102 -15z"/>
<path d="M10461 8747 c-24 -12 -62 -43 -84 -69 -66 -75 -83 -166 -48 -244 22
-49 64 -82 163 -132 133 -67 167 -146 108 -249 -53 -93 -164 -137 -235 -93
-49 30 -64 56 -69 120 -2 30 -8 55 -13 55 -4 0 -34 -8 -65 -18 l-58 -19 0 -46
c1 -121 94 -221 225 -238 49 -7 175 27 196 52 6 8 15 14 20 14 12 0 89 78 89
90 0 6 4 10 9 10 16 0 53 105 58 167 5 54 2 70 -21 117 -33 67 -90 118 -173
156 -100 46 -132 87 -113 145 16 49 53 75 106 75 47 0 74 -24 74 -67 0 -27 8
-27 75 -4 31 11 51 25 53 35 7 36 -29 107 -71 137 -35 26 -48 29 -111 29 -54
0 -82 -6 -115 -23z"/>
<path d="M10977 8763 c-3 -5 -8 -30 -12 -58 -3 -27 -12 -84 -20 -125 -8 -41
-23 -129 -35 -195 -22 -128 -43 -243 -65 -365 -8 -41 -17 -97 -20 -124 -4 -27
-9 -55 -12 -62 -4 -12 38 -14 250 -14 l255 0 14 63 13 62 -191 3 -191 2 12 68
c7 37 19 100 26 140 l12 72 188 0 188 0 10 38 c5 20 12 49 15 65 l6 27 -190 0
c-120 0 -190 4 -190 10 0 18 31 194 41 233 l10 37 188 0 189 0 10 58 c5 31 8
60 5 65 -2 4 -116 7 -253 7 -137 0 -251 -3 -253 -7z"/>
<path d="M11637 8763 c-3 -5 -8 -30 -12 -58 -3 -27 -12 -84 -20 -125 -7 -41
-21 -118 -30 -170 -14 -86 -29 -165 -70 -390 -8 -41 -17 -97 -20 -124 -4 -27
-9 -55 -12 -62 -4 -11 9 -14 60 -14 74 0 71 -4 86 100 6 36 16 95 23 133 l12
67 51 0 c56 0 53 4 108 -120 13 -30 37 -83 53 -117 l29 -63 72 0 c41 0 73 4
73 10 0 5 -19 49 -41 97 -76 161 -100 215 -97 217 156 90 238 214 238 361 0
114 -73 213 -183 248 -39 12 -89 17 -185 17 -72 0 -133 -3 -135 -7z m266 -137
c49 -18 75 -42 93 -85 30 -72 9 -147 -61 -216 -57 -56 -108 -75 -201 -75 l-56
0 7 43 c3 23 12 74 20 112 7 39 19 104 25 145 7 41 14 78 17 83 7 12 115 7
156 -7z"/>
<path d="M12260 8755 c0 -9 4 -35 9 -58 5 -23 19 -94 31 -157 11 -63 27 -149
35 -190 8 -41 21 -115 30 -165 9 -49 25 -130 35 -180 10 -49 21 -111 25 -137
6 -47 7 -48 43 -48 28 0 39 5 48 23 5 12 27 54 48 92 21 39 69 127 107 197 38
69 69 129 69 134 0 4 6 15 14 23 7 9 33 54 58 101 25 47 59 110 75 140 94 172
122 228 116 234 -3 3 -34 6 -69 6 l-62 0 -16 -37 c-9 -21 -25 -52 -36 -70 -10
-17 -38 -67 -61 -110 -23 -43 -52 -96 -64 -118 -12 -22 -42 -76 -65 -120 -120
-225 -120 -225 -120 -179 0 16 -6 61 -15 99 -8 39 -24 122 -35 185 -12 63 -27
147 -35 185 -8 39 -18 90 -22 115 l-8 45 -68 3 c-56 2 -67 0 -67 -13z"/>
<path d="M13127 8763 c-3 -5 -8 -30 -12 -58 -3 -27 -12 -84 -20 -125 -8 -41
-23 -129 -35 -195 -22 -128 -43 -243 -65 -365 -8 -41 -17 -97 -20 -124 -4 -27
-9 -55 -12 -62 -4 -11 9 -14 60 -14 72 0 70 -2 82 75 7 44 26 149 56 320 40
223 49 272 64 365 9 52 20 114 24 137 5 24 6 45 3 48 -8 8 -120 6 -125 -2z"/>
<path d="M13740 8751 c-123 -42 -254 -144 -324 -254 -20 -31 -36 -60 -36 -65
0 -5 -7 -23 -15 -40 -24 -47 -38 -149 -31 -227 7 -76 39 -158 80 -202 14 -15
26 -30 26 -34 0 -14 92 -70 151 -91 110 -39 260 -24 381 38 55 28 138 85 138
95 0 11 -66 79 -76 79 -3 0 -32 -15 -63 -34 -79 -48 -189 -80 -247 -71 -103
15 -191 76 -233 161 -20 38 -24 62 -23 131 0 77 3 92 36 158 76 153 216 245
373 245 81 0 124 -15 190 -67 23 -18 47 -33 53 -33 6 0 33 17 58 37 26 21 49
39 52 41 11 7 -91 86 -150 115 -60 29 -74 32 -175 34 -86 2 -122 -2 -165 -16z"/>
<path d="M14356 8699 c-9 -39 -16 -81 -16 -92 0 -12 -9 -64 -19 -117 -10 -52
-26 -135 -35 -185 -39 -225 -50 -286 -67 -374 -10 -52 -16 -98 -13 -103 7 -11
501 -10 508 1 3 4 8 34 12 65 l7 56 -188 0 -188 0 7 48 c3 26 14 89 23 139
l18 93 193 0 192 0 0 65 0 65 -180 0 c-209 0 -191 -15 -160 131 11 52 20 106
20 122 l0 27 160 0 160 0 0 65 0 65 -209 0 -209 0 -16 -71z"/>
<path d="M1927 6997 c-1574 -1574 -1623 -1624 -1659 -1697 -53 -107 -68 -169
-68 -276 0 -268 190 -504 455 -565 90 -21 17747 -21 17845 0 214 46 379 202
441 420 37 127 17 300 -47 422 -22 43 -355 381 -1653 1682 -894 895 -1629
1627 -1634 1627 -4 0 -24 -15 -44 -34 l-38 -34 1607 -1607 c884 -884 1621
-1627 1638 -1652 54 -83 72 -147 72 -259 0 -84 -4 -110 -25 -162 -49 -121
-132 -207 -254 -265 l-68 -32 -4438 -3 -4437 -2 -21 -21 -21 -21 -22 21 -22
21 -4411 0 -4411 0 -68 21 c-171 53 -290 189 -324 372 -21 115 9 248 78 342
16 22 751 761 1632 1643 l1603 1603 -38 39 c-22 22 -41 40 -43 40 -1 0 -733
-730 -1625 -1623z"/>
<path d="M2069 6902 c-878 -878 -1610 -1618 -1628 -1644 -19 -28 -41 -82 -54
-132 -19 -75 -20 -92 -10 -152 30 -175 154 -309 325 -349 55 -13 597 -15 4416
-15 2393 0 4352 4 4352 8 0 4 -24 31 -53 60 l-53 52 -4314 0 c-4089 0 -4318 1
-4364 17 -67 24 -146 103 -176 173 -29 70 -25 181 9 250 17 33 463 486 1622
1645 879 880 1599 1605 1599 1611 0 10 -61 74 -70 74 -3 0 -723 -719 -1601
-1598z"/>
<path d="M15446 8461 l-39 -40 1610 -1610 c1517 -1517 1611 -1613 1631 -1666
14 -36 22 -79 22 -119 0 -116 -81 -232 -193 -278 -39 -16 -300 -17 -4366 -17
l-4323 -1 -49 -52 c-27 -29 -49 -56 -49 -60 0 -4 1959 -8 4353 -8 4711 0 4413
-3 4519 51 55 28 149 123 177 178 36 70 53 181 40 260 -25 145 76 37 -1678
1794 -883 884 -1608 1607 -1611 1607 -3 0 -23 -18 -44 -39z"/>
<path d="M15335 8349 c-19 -17 -35 -37 -35 -45 0 -7 22 -37 49 -66 238 -259
417 -593 487 -913 67 -304 55 -681 -31 -970 -112 -375 -308 -695 -578 -942
-72 -66 -128 -113 -150 -128 -8 -5 -53 -35 -99 -66 -103 -70 -322 -177 -445
-218 -118 -39 -198 -58 -348 -82 -115 -18 -200 -19 -2172 -19 l-2052 0 -50
-49 c-28 -27 -51 -54 -51 -60 0 -15 3989 -15 4185 0 178 13 358 48 525 103
124 40 319 129 393 180 21 14 40 26 43 26 5 0 81 53 161 112 106 77 276 247
369 367 213 274 350 582 430 966 25 123 31 500 10 641 -24 156 -80 370 -113
434 -7 14 -13 29 -13 34 0 5 -9 28 -19 50 -93 198 -108 225 -179 329 -26 37
-52 77 -58 89 -12 21 -214 258 -220 258 -2 0 -19 -14 -39 -31z"/>
<path d="M3715 8303 c-89 -98 -191 -233 -230 -303 -6 -10 -16 -24 -22 -32 -17
-20 -139 -265 -156 -313 -86 -241 -121 -398 -137 -613 -30 -405 68 -821 287
-1217 94 -170 275 -393 419 -516 302 -260 574 -396 954 -480 215 -47 272 -48
2438 -49 1117 0 2032 4 2032 8 0 4 -24 31 -53 60 l-53 52 -2044 0 c-1980 0
-2049 1 -2175 20 -232 35 -388 83 -595 184 -79 39 -84 41 -170 96 -350 220
-632 561 -785 950 -9 25 -22 56 -27 70 -100 242 -145 663 -103 944 62 408 249
796 517 1074 l61 63 -33 34 c-19 19 -41 35 -49 35 -9 0 -43 -30 -76 -67z"/>
<path d="M3817 8163 c-176 -206 -270 -362 -371 -620 -20 -51 -36 -98 -36 -105
0 -6 -6 -34 -14 -62 -70 -247 -80 -576 -25 -851 21 -105 23 -114 63 -235 23
-72 31 -92 64 -170 64 -153 187 -356 288 -475 173 -205 363 -358 584 -472 244
-126 435 -182 715 -208 124 -12 482 -15 2098 -15 1071 0 1947 4 1947 8 0 4
-21 29 -48 55 l-47 47 -1965 3 c-2120 3 -2018 1 -2230 53 -333 83 -611 238
-845 471 -487 487 -667 1208 -464 1853 26 79 116 280 161 358 55 93 158 232
236 317 29 32 52 63 52 70 0 11 -61 75 -72 75 -4 0 -45 -44 -91 -97z"/>
<path d="M15206 8221 l-37 -38 58 -64 c32 -35 61 -66 64 -69 13 -10 137 -188
173 -247 119 -198 210 -469 236 -698 50 -455 -73 -917 -348 -1302 -128 -180
-321 -355 -537 -489 -112 -69 -329 -156 -495 -198 -209 -52 -109 -50 -2235
-53 l-1969 -4 -43 -46 c-24 -25 -43 -50 -43 -54 0 -5 865 -9 1948 -9 2051 0
2113 1 2322 45 304 64 609 214 843 413 62 53 199 196 251 261 49 62 166 235
166 245 0 3 13 27 28 53 92 159 173 397 213 628 27 155 26 457 -1 610 -27 154
-79 344 -102 370 -4 5 -8 15 -8 23 0 22 -98 218 -153 307 -28 44 -79 116 -113
160 -61 78 -166 195 -175 195 -3 0 -22 -17 -43 -39z"/>
<path d="M3974 8082 c-94 -104 -111 -126 -176 -223 -171 -254 -268 -536 -287
-834 -16 -251 12 -467 93 -715 25 -79 123 -283 171 -359 53 -82 76 -115 123
-174 159 -200 356 -358 587 -472 157 -77 238 -105 450 -152 l120 -27 1953 -3
c1073 -2 1952 0 1952 4 0 5 -21 30 -48 56 l-47 46 -1880 4 c-2012 4 -1908 2
-2117 51 -453 108 -845 422 -1063 851 -124 245 -184 489 -185 755 0 302 81
602 225 831 14 21 25 41 25 44 0 6 35 54 89 125 11 14 47 57 80 95 34 39 61
75 61 81 0 10 -61 74 -70 74 -3 0 -28 -26 -56 -58z"/>
<path d="M15092 8107 c-18 -18 -32 -38 -32 -45 0 -6 23 -36 51 -66 192 -207
334 -483 399 -776 27 -119 37 -355 21 -500 -10 -99 -60 -311 -96 -410 -48
-132 -198 -392 -280 -484 -293 -333 -593 -500 -1025 -574 -84 -14 -305 -17
-1970 -21 l-1875 -6 -42 -42 c-24 -23 -43 -46 -43 -52 0 -14 3659 -15 3835 -1
113 9 246 32 360 64 117 32 321 122 403 177 24 16 45 29 47 29 20 0 200 146
285 230 82 83 230 265 230 285 0 2 12 21 26 42 40 58 122 228 159 328 35 95
62 201 92 350 35 182 20 502 -33 677 -8 26 -14 53 -14 60 0 23 -66 192 -114
291 -45 92 -121 214 -189 302 -49 63 -149 175 -156 175 -4 0 -21 -15 -39 -33z"/>
<path d="M4084 7954 c-32 -37 -66 -76 -74 -88 -8 -12 -20 -27 -27 -34 -25 -26
-128 -199 -164 -277 -102 -221 -139 -398 -139 -660 0 -151 4 -202 24 -301 90
-450 357 -842 731 -1071 57 -35 250 -124 319 -148 43 -14 131 -38 195 -53
l116 -27 1863 -3 c1024 -1 1862 1 1862 6 0 4 -22 29 -48 55 l-48 47 -1724 0
c-1458 0 -1746 2 -1858 15 -228 26 -381 76 -607 199 -118 65 -311 239 -409
371 -201 268 -306 578 -306 903 0 255 40 427 157 669 28 58 145 239 166 258 7
6 35 37 64 71 l52 61 -37 36 c-21 21 -40 37 -43 37 -3 0 -32 -30 -65 -66z"/>
<path d="M14967 7982 l-38 -38 51 -55 c183 -196 301 -426 367 -714 27 -121 25
-455 -5 -580 -32 -134 -66 -233 -122 -350 -85 -178 -147 -265 -296 -416 -211
-215 -485 -353 -814 -411 -46 -8 -582 -13 -1862 -17 l-1796 -6 -41 -43 c-23
-24 -41 -47 -41 -53 0 -6 636 -9 1858 -7 l1857 3 109 23 c472 100 820 348
1073 767 37 61 106 215 133 295 135 407 112 817 -67 1190 -41 85 -131 233
-174 285 -74 89 -142 165 -148 165 -4 0 -24 -17 -44 -38z"/>
<path d="M4196 7824 c-166 -190 -271 -402 -328 -664 -30 -137 -32 -380 -5
-510 32 -149 81 -298 135 -405 25 -50 111 -193 131 -217 171 -210 304 -321
506 -421 106 -53 214 -90 345 -120 95 -21 96 -21 1868 -24 974 -2 1772 0 1772
5 0 4 -22 29 -48 55 l-48 47 -1659 1 c-1335 1 -1681 3 -1765 14 -507 66 -922
413 -1078 905 -53 166 -56 185 -56 405 0 194 2 217 26 305 39 144 117 326 164
381 8 8 14 19 14 23 0 4 5 12 10 19 6 7 29 37 53 67 23 30 57 70 74 90 18 19
33 40 33 46 0 10 -61 74 -72 74 -3 0 -35 -34 -72 -76z"/>
<path d="M14853 7867 c-18 -18 -33 -37 -33 -43 0 -5 16 -27 36 -49 164 -182
270 -389 324 -632 28 -131 28 -366 0 -496 -63 -283 -185 -513 -369 -698 -156
-155 -362 -273 -576 -331 -177 -47 -204 -48 -1957 -48 l-1647 0 -51 -50 c-34
-34 -47 -52 -38 -55 7 -3 808 -4 1778 -2 1759 3 1765 3 1857 24 100 23 150 38
201 59 18 8 37 14 43 14 16 0 183 86 244 125 203 130 401 356 500 570 15 33
33 71 40 85 30 58 83 263 100 384 45 327 -38 671 -231 956 -56 84 -170 220
-183 220 -3 0 -21 -15 -38 -33z"/>
<path d="M4330 7723 c-110 -123 -198 -277 -254 -444 -47 -142 -61 -231 -61
-384 0 -334 126 -649 354 -884 179 -184 376 -294 641 -358 70 -17 178 -18
1758 -21 925 -1 1682 1 1682 6 0 4 -22 29 -48 55 l-48 47 -1564 1 c-1600 0
-1662 2 -1800 38 -327 87 -604 315 -748 615 -38 78 -55 125 -85 235 -29 107
-31 390 -3 501 55 220 145 392 278 534 16 17 28 35 28 41 0 11 -61 75 -72 75
-4 0 -30 -26 -58 -57z"/>
<path d="M14733 7746 c-18 -18 -33 -36 -33 -40 0 -3 26 -39 59 -79 182 -225
271 -468 271 -740 0 -349 -159 -675 -440 -902 -146 -118 -378 -214 -560 -231
-41 -4 -82 -8 -90 -10 -8 -1 -718 -3 -1577 -3 l-1562 -1 -50 -49 c-28 -27 -51
-52 -51 -55 0 -3 744 -6 1653 -6 1486 0 1661 2 1742 16 580 106 981 541 1046
1137 29 267 -46 563 -204 797 -51 76 -154 200 -166 200 -3 0 -21 -15 -38 -34z"/>
<path d="M4474 7628 c-351 -381 -385 -965 -78 -1383 164 -224 397 -370 677
-426 95 -18 154 -19 1653 -19 855 0 1554 4 1554 8 0 4 -21 29 -47 54 l-48 47
-1535 3 -1535 4 -90 27 c-328 102 -541 297 -669 612 -58 145 -74 382 -36 542
38 155 91 266 183 385 34 44 66 86 72 94 7 10 0 23 -25 49 -19 19 -37 35 -40
35 -3 0 -19 -15 -36 -32z"/>
<path d="M14608 7622 l-37 -37 56 -65 c152 -176 233 -395 233 -630 0 -269
-109 -522 -307 -711 -112 -108 -251 -186 -420 -236 l-88 -27 -1539 -3 -1538
-4 -49 -50 c-27 -28 -49 -52 -49 -55 0 -2 702 -4 1559 -4 1371 0 1569 2 1642
16 156 29 272 73 399 153 221 138 388 364 467 631 26 90 28 106 27 285 0 165
-3 201 -22 270 -35 126 -68 204 -135 315 -35 57 -136 182 -152 186 -5 2 -27
-14 -47 -34z"/>
<path d="M4572 7486 c-127 -159 -187 -301 -212 -503 -22 -175 11 -347 101
-521 104 -201 253 -336 473 -427 165 -68 94 -65 1714 -65 804 0 1462 4 1462 8
0 4 -22 29 -48 55 l-48 47 -1389 0 c-783 0 -1421 5 -1460 10 -179 23 -326 99
-465 239 -81 81 -103 111 -143 191 -66 135 -86 219 -87 363 0 194 52 349 167
495 29 37 56 73 59 80 7 14 -52 82 -70 82 -6 -1 -30 -25 -54 -54z"/>
<path d="M14491 7506 c-19 -20 -31 -40 -27 -48 3 -7 30 -44 60 -81 100 -127
138 -224 166 -419 16 -110 -14 -287 -67 -398 -108 -226 -281 -375 -523 -451
l-75 -24 -1442 -3 -1442 -3 -51 -49 c-27 -27 -50 -51 -50 -54 0 -3 658 -6
1463 -6 1230 0 1475 2 1544 14 196 35 360 122 494 264 123 128 193 253 239
422 28 106 31 330 5 420 -9 30 -20 70 -25 88 -12 48 -87 195 -127 249 -41 55
-94 113 -103 113 -3 0 -21 -15 -39 -34z"/>
<path d="M4703 7376 c-82 -94 -143 -221 -168 -352 -53 -277 56 -563 277 -729
69 -52 142 -92 203 -113 129 -43 101 -42 1547 -42 758 0 1378 4 1378 8 0 4
-22 29 -48 55 l-48 47 -1331 0 c-1316 0 -1332 0 -1399 21 -86 25 -125 43 -192
86 -57 36 -133 107 -170 160 -67 95 -122 260 -122 368 0 131 67 314 151 408
21 25 39 49 39 54 0 10 -62 73 -72 73 -4 0 -24 -20 -45 -44z"/>
<path d="M14372 7387 c-18 -18 -32 -37 -32 -42 0 -6 12 -24 28 -40 73 -82 123
-187 147 -313 16 -82 17 -104 6 -175 -12 -80 -45 -185 -73 -238 -69 -130 -211
-245 -373 -302 -60 -22 -60 -22 -1415 -24 l-1354 -3 -48 -53 -49 -52 1377 -3
c1527 -2 1464 -5 1610 63 204 94 348 260 416 480 18 58 21 94 21 205 -1 116
-4 145 -26 210 -26 77 -48 130 -70 165 -24 39 -118 155 -125 155 -5 0 -22 -15
-40 -33z"/>
<path d="M11126 7263 c-21 -49 -44 -106 -53 -128 -26 -68 -31 -78 -57 -139
-14 -32 -26 -65 -26 -72 0 -29 -17 -11 -54 59 -21 39 -57 108 -81 152 -23 44
-57 108 -75 143 -17 34 -35 62 -39 62 -4 0 -12 -35 -19 -77 -7 -43 -18 -118
-26 -168 -8 -49 -22 -133 -30 -185 -8 -52 -18 -114 -22 -137 l-7 -43 51 0 50
0 11 88 c6 48 17 128 24 177 l12 90 49 -95 c27 -52 72 -139 100 -192 27 -54
53 -98 57 -98 3 0 12 15 19 33 7 17 18 46 25 62 7 17 29 73 49 125 21 52 45
113 54 134 l17 40 6 -35 c9 -47 80 -323 84 -328 2 -2 25 0 50 4 35 5 45 10 41
21 -4 11 4 9 34 -6 52 -26 124 -26 174 1 32 17 38 18 33 5 -5 -13 1 -16 33
-16 36 0 40 -2 40 -26 0 -15 10 -44 22 -66 49 -86 187 -124 278 -76 27 15 54
40 68 64 24 41 24 42 7 259 l-4 60 9 -60 c5 -33 12 -79 15 -102 l6 -43 46 0
46 0 -7 68 c-20 191 -20 178 3 201 26 26 72 27 93 4 10 -11 23 -66 33 -145
l18 -128 49 0 49 0 -7 37 -7 37 39 -31 c71 -56 172 -66 228 -22 23 18 24 18
29 -1 4 -16 14 -20 46 -20 25 0 41 5 41 12 0 9 3 9 12 0 7 -7 30 -12 51 -12
l39 0 -6 43 c-3 23 -8 81 -12 128 -8 100 2 129 44 129 41 0 62 -43 73 -156 13
-122 22 -148 52 -140 12 3 32 6 43 6 21 0 21 1 7 75 -7 42 -13 106 -11 143 l3
67 36 3 c21 2 40 -2 47 -10 6 -8 21 -73 34 -146 l22 -132 43 0 c43 0 43 0 43
36 0 31 2 34 15 21 77 -78 227 -86 290 -17 25 28 35 25 35 -10 0 -29 2 -30 46
-30 l46 0 -5 53 c-2 28 -11 84 -18 123 -11 65 -11 74 4 98 12 18 26 26 46 26
45 0 73 -30 81 -86 5 -27 14 -84 21 -126 l14 -78 47 0 c36 0 48 4 51 18 4 16
5 16 6 0 1 -15 10 -18 50 -18 56 0 53 -20 20 165 -11 61 -27 146 -35 190 -7
44 -15 91 -16 105 -3 22 -8 25 -52 28 l-49 3 7 -60 c6 -51 5 -61 -9 -61 -8 0
-15 -7 -15 -15 0 -11 -8 -11 -42 5 -54 25 -84 25 -131 1 -31 -16 -37 -16 -37
-4 0 10 -6 13 -16 9 -9 -3 -29 -6 -46 -6 -28 0 -29 -1 -23 -32 7 -32 7 -32
-11 -16 -34 30 -107 58 -153 58 -55 0 -129 -34 -143 -66 -14 -30 -21 -30 -38
1 -15 28 -84 65 -121 65 -13 0 -43 -9 -67 -20 -40 -18 -46 -19 -74 -4 -21 11
-45 14 -77 11 -25 -3 -93 -7 -151 -9 -84 -2 -104 -6 -102 -17 2 -11 0 -12 -10
-4 -23 20 -96 34 -138 27 -48 -8 -101 -41 -115 -71 -9 -20 -11 -19 -51 24
l-42 45 -69 -5 c-37 -3 -93 -6 -124 -6 l-55 0 2 -58 c1 -32 0 -42 -2 -23 -9
78 -10 80 -60 80 -37 0 -45 -3 -40 -15 7 -19 -8 -19 -24 0 -17 21 -95 30 -141
16 -22 -7 -55 -26 -74 -42 l-35 -31 0 36 0 36 -45 0 c-33 0 -45 -4 -45 -15 0
-19 -9 -19 -34 0 -13 9 -43 15 -80 15 -69 0 -110 -20 -147 -69 l-23 -31 -23
83 c-20 75 -30 108 -63 220 -7 20 -13 37 -15 37 -1 0 -19 -39 -39 -87z m1463
-242 c32 -23 56 -88 47 -125 -26 -105 -185 -84 -203 27 -8 53 4 85 40 108 37
23 74 20 116 -10z m-690 -26 c20 -19 25 -34 25 -74 0 -66 -30 -101 -86 -101
-68 0 -118 52 -118 122 1 89 110 122 179 53z m-366 -5 c34 -39 38 -104 6 -144
-17 -22 -28 -26 -74 -26 -47 0 -56 3 -79 31 -43 51 -46 109 -8 148 24 26 42
31 87 26 29 -3 48 -12 68 -35z m221 -241 c54 -23 103 -22 155 4 l31 15 0 -41
c-1 -65 -20 -82 -89 -82 -67 0 -98 19 -103 64 -3 22 -8 26 -40 29 -21 2 -38 9
-38 15 0 7 -3 23 -7 37 l-6 25 24 -22 c13 -12 46 -32 73 -44z"/>
<path d="M4825 7258 c-44 -51 -71 -100 -103 -188 -20 -53 -24 -85 -25 -175 -1
-106 3 -130 38 -223 51 -140 183 -269 340 -333 l60 -24 1290 -5 c710 -3 1305
-4 1324 -2 l34 3 -54 55 -53 54 -1236 0 c-1194 0 -1237 1 -1297 20 -169 53
-283 175 -327 351 -20 81 -20 102 0 192 17 74 43 130 97 205 l31 42 -34 35
c-19 19 -37 35 -41 35 -4 0 -24 -19 -44 -42z"/>
<path d="M14252 7267 c-18 -18 -32 -36 -32 -40 0 -4 16 -28 35 -53 19 -25 47
-71 62 -102 25 -52 27 -68 27 -183 l1 -126 -38 -74 c-52 -102 -113 -164 -212
-217 -102 -54 -49 -52 -1382 -52 l-1234 0 -51 -52 -52 -53 1290 -3 c781 -1
1309 2 1340 7 122 23 269 117 346 221 79 107 112 212 112 350 0 116 -19 187
-76 290 -28 51 -84 120 -98 120 -3 0 -20 -15 -38 -33z"/>
<path d="M7844 7279 c-6 -8 -33 -54 -59 -104 -27 -49 -62 -115 -78 -145 -16
-30 -49 -91 -72 -135 -23 -44 -56 -106 -74 -138 -17 -31 -31 -60 -31 -63 0 -3
23 -4 51 -2 l51 3 41 78 40 78 111 -3 110 -3 29 -77 30 -78 48 0 c38 0 49 4
49 16 0 14 2 14 22 0 14 -10 44 -16 84 -16 102 0 149 45 165 160 6 40 7 28 3
-47 l-4 -103 44 0 c47 0 56 9 56 60 l0 28 38 -38 c36 -37 91 -60 142 -60 45 0
121 34 151 68 l29 33 0 -41 0 -40 44 0 43 0 6 68 c4 37 7 91 7 120 0 43 5 58
25 77 60 61 85 19 85 -142 l0 -123 45 0 45 0 0 98 c1 151 15 191 67 192 42 0
53 -34 53 -167 l0 -123 45 0 45 0 0 39 0 38 34 -31 c82 -78 226 -64 308 29 17
20 17 19 18 -22 l0 -43 48 0 47 0 -3 140 c-2 93 0 140 7 140 7 0 11 -50 13
-137 l3 -138 47 -3 47 -3 3 126 3 126 71 -138 c39 -75 76 -139 81 -140 5 -2
24 32 43 74 18 43 39 87 46 97 13 19 13 19 19 0 14 -46 45 -91 81 -116 34 -24
49 -27 115 -28 68 0 80 3 115 29 21 15 47 42 56 58 l17 30 -39 17 -39 17 -36
-36 c-41 -39 -77 -45 -125 -20 -26 13 -50 42 -50 59 0 3 22 6 48 6 27 0 91 3
142 7 l92 6 -6 46 c-16 118 -134 188 -250 148 -26 -9 -44 -12 -41 -6 7 10 -47
12 -82 3 -13 -4 -30 -23 -41 -48 -11 -22 -30 -64 -43 -93 -13 -28 -26 -50 -29
-48 -4 2 -27 45 -51 95 l-44 90 -87 0 -88 0 0 60 0 60 -45 0 -45 0 0 -60 c0
-53 -2 -60 -20 -60 -14 0 -20 -7 -20 -21 l0 -21 -36 21 c-53 32 -162 30 -220
-4 -24 -14 -49 -35 -55 -47 -11 -21 -12 -21 -22 -2 -5 10 -21 31 -35 47 -22
23 -34 27 -80 27 -33 0 -65 -7 -82 -17 -27 -16 -31 -16 -63 1 -24 14 -45 17
-78 12 -24 -3 -68 -5 -96 -5 l-53 0 0 -46 0 -46 -29 33 c-56 64 -164 83 -242
42 -26 -13 -29 -13 -29 2 0 12 -7 15 -30 12 l-30 -5 0 59 0 58 -45 0 -45 0 0
-60 0 -60 -49 0 -48 0 -7 -115 c-4 -64 -12 -127 -18 -140 -13 -29 -54 -40 -92
-25 l-28 10 4 135 4 135 -42 0 c-51 0 -53 -6 -55 -145 0 -67 -3 -92 -9 -75 -4
14 -34 86 -65 160 -31 74 -60 146 -65 160 -4 14 -18 49 -32 79 -18 42 -26 51
-34 40z m1744 -314 c24 -29 30 -91 11 -127 -17 -31 -85 -58 -122 -47 -54 15
-77 46 -77 104 0 41 5 56 24 74 49 46 121 44 164 -4z m-867 -4 c24 -24 29 -38
29 -76 0 -38 -5 -51 -30 -75 -26 -25 -39 -30 -80 -30 -66 0 -100 34 -100 100
0 74 35 108 113 109 30 1 45 -6 68 -28z"/>
<path d="M5036 7198 c-2 -7 -11 -58 -20 -113 -39 -237 -65 -380 -72 -407 -5
-15 2 -18 44 -18 l49 0 12 73 c26 151 45 246 49 242 3 -2 -2 -42 -11 -87 -25
-132 -37 -203 -37 -216 0 -7 17 -12 44 -12 l43 0 12 57 c6 31 11 69 11 85 0
43 38 123 64 138 13 6 34 10 47 8 21 -3 24 -9 27 -56 2 -30 -4 -88 -12 -129
-22 -105 -23 -103 27 -103 l44 0 17 103 c21 119 24 131 25 97 1 -14 -6 -60
-14 -103 -8 -43 -15 -83 -15 -88 0 -5 20 -9 44 -9 l45 0 7 46 7 46 17 -28 c10
-15 32 -36 49 -46 56 -36 174 -20 234 30 16 14 17 13 17 -11 0 -25 3 -27 45
-27 25 0 45 3 45 8 2 58 23 200 36 231 14 35 21 41 45 41 33 0 34 -5 14 -40
-22 -39 -19 -136 6 -177 42 -67 139 -92 212 -53 31 17 37 17 37 5 0 -11 12
-15 45 -15 45 0 45 0 45 35 0 40 9 44 36 14 43 -48 147 -64 220 -33 26 11 39
13 42 5 2 -6 23 -11 47 -11 l43 0 6 70 c3 39 9 102 12 140 4 50 10 70 20 70
17 0 17 -1 -1 -125 -23 -157 -23 -155 28 -155 l44 0 12 98 c6 53 14 110 18
126 5 28 6 28 25 -20 11 -27 26 -65 33 -84 38 -100 59 -150 64 -150 3 0 31 43
61 94 30 52 58 92 61 90 4 -2 10 -19 13 -39 18 -92 121 -137 239 -104 38 10
117 76 117 98 0 6 -16 19 -35 28 -36 17 -36 17 -58 -9 -39 -46 -83 -59 -130
-37 -21 9 -47 46 -47 64 0 3 49 5 109 5 60 0 123 3 141 6 l32 7 -4 54 c-7 86
-61 142 -138 144 -176 3 -231 -2 -237 -19 -19 -47 -107 -185 -111 -172 -3 8
-9 26 -15 40 -6 14 -20 52 -32 85 l-22 60 -82 -3 -81 -3 0 61 0 61 -42 -3 -43
-3 -3 -56 c-3 -50 -6 -57 -26 -61 -12 -3 -31 -1 -42 3 -56 22 -159 -4 -211
-53 l-23 -21 0 36 0 37 -45 0 c-34 0 -45 -4 -45 -15 0 -14 -3 -14 -30 0 -36
19 -116 19 -150 1 -21 -12 -29 -12 -54 1 -18 9 -42 13 -65 9 -20 -3 -60 -6
-88 -5 l-53 0 0 -35 0 -34 -28 28 c-42 41 -104 56 -167 39 -27 -8 -65 -13 -82
-11 l-33 3 7 60 6 59 -46 0 -46 0 -7 -60 c-5 -50 -10 -60 -25 -60 -11 0 -19
-7 -19 -15 0 -11 -7 -10 -35 7 -29 16 -45 19 -83 14 -26 -4 -75 -8 -109 -9
-72 -2 -70 -6 -48 93 22 100 22 100 -30 100 -28 0 -47 -5 -49 -12z m1200 -266
c34 -45 19 -122 -31 -164 -29 -25 -107 -24 -130 2 -42 46 -16 145 46 178 31
16 98 7 115 -16z m367 1 c20 -16 34 -34 32 -41 -3 -8 -5 -28 -5 -45 0 -27 -8
-37 -48 -64 -76 -53 -149 -39 -172 32 -9 26 -8 41 3 67 33 80 121 103 190 51z"/>
<path d="M9250 6179 c-41 -5 -121 -14 -177 -20 l-103 -12 0 -71 c0 -39 3 -88
7 -109 6 -37 7 -38 42 -37 61 3 73 1 65 -12 -5 -8 -2 -9 10 -5 10 4 29 7 43 7
15 0 23 3 19 7 -4 4 69 17 161 29 100 12 170 17 174 12 9 -14 21 -12 31 6 5 9
21 16 36 16 15 0 45 5 66 11 36 10 38 12 20 22 -10 6 -27 20 -36 32 -9 12 -40
37 -67 56 -28 19 -51 38 -51 42 0 5 6 5 13 1 6 -4 3 2 -7 14 -20 23 -32 30
-21 12 3 -5 2 -10 -4 -10 -5 0 -13 5 -16 10 -7 12 -97 11 -205 -1z"/>
<path d="M8812 6146 c0 -6 -4 -24 -11 -41 -7 -16 -14 -42 -16 -58 -1 -15 -5
-30 -9 -34 -11 -11 -7 -41 7 -46 8 -4 7 -6 -3 -6 -20 -1 -52 -39 -44 -52 4 -7
10 -7 18 0 6 5 33 11 59 12 36 2 50 -2 61 -16 10 -14 15 -15 21 -5 5 8 1 18
-11 28 -18 13 -18 14 6 7 14 -4 31 -10 38 -13 10 -3 12 19 9 102 -2 58 -7 109
-10 112 -11 12 -117 21 -115 10z"/>
<path d="M8591 5913 c0 -17 -4 -40 -7 -50 -5 -15 -4 -15 5 -3 9 13 11 13 11
-1 0 -8 11 -30 25 -49 18 -24 25 -47 25 -80 0 -54 15 -111 32 -122 7 -4 28 -8
46 -8 17 0 32 -4 32 -10 0 -5 4 -10 10 -10 16 0 130 -92 125 -101 -6 -9 51
-51 74 -53 43 -4 132 -79 161 -136 7 -14 28 -43 46 -66 38 -46 104 -68 155
-54 20 6 31 5 36 -4 5 -8 27 -23 50 -35 23 -11 44 -25 47 -29 3 -5 34 -21 70
-36 l65 -28 89 45 c57 29 93 42 99 36 11 -11 109 28 227 91 41 21 92 42 113
46 21 4 43 10 48 14 6 4 22 10 36 13 14 4 56 21 92 38 l66 31 -52 27 c-79 42
-120 81 -84 81 18 0 201 90 209 104 11 16 10 74 -2 81 -5 3 -7 0 -4 -9 9 -22
-55 -57 -191 -104 -173 -60 -355 -109 -498 -134 l-124 -21 -24 21 c-12 12 -28
23 -33 23 -6 1 7 5 29 9 39 7 38 7 -16 9 -31 0 -71 4 -88 7 l-31 7 0 -48 c0
-41 -2 -46 -15 -35 -8 7 -15 23 -15 36 0 16 -6 24 -18 24 -10 0 -23 5 -29 11
-6 6 -25 11 -43 12 -29 2 -37 10 -72 67 -47 77 -73 107 -112 127 -39 20 -75 9
-88 -28 -9 -28 -12 -29 -27 -15 -10 9 -20 16 -24 16 -6 0 -98 60 -107 69 -14
16 -68 49 -90 56 -14 4 -32 13 -40 20 -18 15 -61 30 -75 26 -5 -1 -7 0 -3 4 4
4 2 12 -3 19 -5 6 -20 27 -32 46 -23 36 -45 42 -39 12 3 -13 0 -13 -11 3 -8
11 -17 32 -20 45 -4 21 -4 20 -6 -7z"/>
</g>
</svg>
